<svg width="126" height="90" viewBox="0 0 126 90" fill="none" xmlns="http://www.w3.org/2000/svg">
<path d="M7.008 11.52C8.64 11.52 9.944 12.008 10.92 12.984C11.896 13.944 12.384 15.288 12.384 17.016C12.384 17.4 12.36 17.8 12.312 18.216H4.344C4.36 19.288 4.624 20.104 5.136 20.664C5.664 21.208 6.432 21.48 7.44 21.48C8.736 21.48 9.936 21.072 11.04 20.256L11.808 22.704C11.264 23.168 10.584 23.536 9.768 23.808C8.952 24.064 8.096 24.192 7.2 24.192C5.936 24.192 4.824 23.952 3.864 23.472C2.904 22.976 2.16 22.28 1.632 21.384C1.12 20.472 0.864 19.416 0.864 18.216C0.864 16.92 1.128 15.768 1.656 14.76C2.184 13.736 2.912 12.944 3.84 12.384C4.784 11.808 5.84 11.52 7.008 11.52ZM7.152 14.064C5.712 14.064 4.832 14.848 4.512 16.416H9.384C9.384 15.664 9.184 15.088 8.784 14.688C8.384 14.272 7.84 14.064 7.152 14.064ZM15.5953 6.336H19.2193L17.8033 24H14.1793L15.5953 6.336ZM26.7893 11.52C28.4213 11.52 29.7253 12.008 30.7013 12.984C31.6773 13.944 32.1653 15.288 32.1653 17.016C32.1653 17.4 32.1413 17.8 32.0933 18.216H24.1253C24.1413 19.288 24.4053 20.104 24.9173 20.664C25.4453 21.208 26.2133 21.48 27.2213 21.48C28.5173 21.48 29.7173 21.072 30.8213 20.256L31.5893 22.704C31.0453 23.168 30.3653 23.536 29.5493 23.808C28.7333 24.064 27.8773 24.192 26.9813 24.192C25.7173 24.192 24.6053 23.952 23.6453 23.472C22.6853 22.976 21.9413 22.28 21.4133 21.384C20.9013 20.472 20.6453 19.416 20.6453 18.216C20.6453 16.92 20.9093 15.768 21.4373 14.76C21.9653 13.736 22.6933 12.944 23.6213 12.384C24.5653 11.808 25.6213 11.52 26.7893 11.52ZM26.9333 14.064C25.4933 14.064 24.6133 14.848 24.2933 16.416H29.1653C29.1653 15.664 28.9653 15.088 28.5653 14.688C28.1653 14.272 27.6213 14.064 26.9333 14.064ZM40.1766 24.192C38.8966 24.192 37.7766 23.944 36.8166 23.448C35.8566 22.952 35.1206 22.256 34.6086 21.36C34.0966 20.464 33.8406 19.424 33.8406 18.24C33.8406 16.864 34.1126 15.672 34.6566 14.664C35.2166 13.656 36.0006 12.88 37.0086 12.336C38.0326 11.792 39.2246 11.52 40.5846 11.52C42.5206 11.52 44.0966 12.024 45.3126 13.032L44.1366 15.552C43.0326 14.72 41.9126 14.304 40.7766 14.304C39.7526 14.304 38.9606 14.648 38.4006 15.336C37.8406 16.008 37.5606 16.96 37.5606 18.192C37.5606 19.232 37.8166 20.032 38.3286 20.592C38.8406 21.136 39.5446 21.408 40.4406 21.408C41.6086 21.408 42.7206 21 43.7766 20.184L44.5686 22.704C44.0246 23.184 43.3606 23.552 42.5766 23.808C41.8086 24.064 41.0086 24.192 40.1766 24.192ZM51.2327 19.272C51.1847 19.944 51.3207 20.44 51.6407 20.76C51.9607 21.08 52.4007 21.24 52.9607 21.24C53.3287 21.24 53.7367 21.176 54.1847 21.048L53.9447 23.856C53.4007 24.08 52.6967 24.192 51.8327 24.192C50.4567 24.192 49.4007 23.824 48.6647 23.088C47.9447 22.352 47.5847 21.312 47.5847 19.968C47.5847 19.696 47.5927 19.488 47.6087 19.344L47.9927 14.544H45.6887L45.9047 11.832H48.2087L48.4247 8.976L52.1447 7.8L51.8327 11.832H54.9287L54.7127 14.544H51.6167L51.2327 19.272ZM63.8443 11.544C64.3563 11.544 64.7883 11.624 65.1403 11.784L64.9003 15.072C64.3243 14.816 63.7323 14.688 63.1243 14.688C62.1643 14.688 61.4123 14.936 60.8683 15.432C60.3243 15.928 60.0203 16.664 59.9563 17.64L59.4283 24H55.8043L56.5003 15.312C56.5643 14.192 56.5963 13.352 56.5963 12.792C56.5963 12.36 56.5883 12.04 56.5723 11.832H60.0043L60.0523 13.632C60.4043 12.976 60.9243 12.464 61.6123 12.096C62.3003 11.728 63.0443 11.544 63.8443 11.544ZM66.6321 11.832H70.2561L69.2961 24H65.6721L66.6321 11.832ZM70.8081 6.12L70.5441 9.528H66.6561L66.9201 6.12H70.8081ZM78.45 24.192C77.17 24.192 76.05 23.944 75.09 23.448C74.13 22.952 73.394 22.256 72.882 21.36C72.37 20.464 72.114 19.424 72.114 18.24C72.114 16.864 72.386 15.672 72.93 14.664C73.49 13.656 74.274 12.88 75.282 12.336C76.306 11.792 77.498 11.52 78.858 11.52C80.794 11.52 82.37 12.024 83.586 13.032L82.41 15.552C81.306 14.72 80.186 14.304 79.05 14.304C78.026 14.304 77.234 14.648 76.674 15.336C76.114 16.008 75.834 16.96 75.834 18.192C75.834 19.232 76.09 20.032 76.602 20.592C77.114 21.136 77.818 21.408 78.714 21.408C79.882 21.408 80.994 21 82.05 20.184L82.842 22.704C82.298 23.184 81.634 23.552 80.85 23.808C80.082 24.064 79.282 24.192 78.45 24.192ZM97.5969 11.832L96.6369 24H93.0609L93.1809 22.44C92.7809 23 92.2609 23.432 91.6209 23.736C90.9809 24.04 90.2769 24.192 89.5089 24.192C88.4849 24.192 87.5809 23.96 86.7969 23.496C86.0129 23.016 85.4049 22.336 84.9729 21.456C84.5409 20.576 84.3249 19.536 84.3249 18.336C84.3249 17.008 84.5649 15.832 85.0449 14.808C85.5409 13.768 86.2289 12.96 87.1089 12.384C87.9889 11.808 88.9969 11.52 90.1329 11.52C90.9809 11.52 91.7249 11.688 92.3649 12.024C93.0049 12.344 93.5169 12.816 93.9009 13.44L94.0209 11.832H97.5969ZM90.7089 21.456C91.5889 21.456 92.2849 21.112 92.7969 20.424C93.3089 19.736 93.5649 18.816 93.5649 17.664C93.5649 16.544 93.3329 15.704 92.8689 15.144C92.4049 14.568 91.7329 14.28 90.8529 14.28C89.9409 14.28 89.2209 14.632 88.6929 15.336C88.1809 16.024 87.9249 16.96 87.9249 18.144C87.9249 19.216 88.1649 20.04 88.6449 20.616C89.1249 21.176 89.8129 21.456 90.7089 21.456ZM104.434 24.192C102.354 24.192 100.498 23.696 98.8661 22.704L100.042 20.184C100.714 20.648 101.434 21.008 102.202 21.264C102.97 21.504 103.738 21.624 104.506 21.624C105.178 21.624 105.674 21.528 105.994 21.336C106.314 21.144 106.474 20.888 106.474 20.568C106.474 20.232 106.282 19.968 105.898 19.776C105.53 19.584 104.922 19.36 104.074 19.104C103.194 18.864 102.474 18.624 101.914 18.384C101.354 18.144 100.866 17.792 100.45 17.328C100.05 16.848 99.8501 16.232 99.8501 15.48C99.8501 14.696 100.066 14.008 100.498 13.416C100.946 12.824 101.57 12.36 102.37 12.024C103.186 11.688 104.114 11.52 105.154 11.52C106.066 11.52 106.954 11.656 107.818 11.928C108.698 12.2 109.434 12.568 110.026 13.032L108.874 15.456C108.282 15.024 107.658 14.696 107.002 14.472C106.346 14.248 105.706 14.136 105.082 14.136C104.426 14.136 103.93 14.232 103.594 14.424C103.258 14.616 103.09 14.88 103.09 15.216C103.09 15.568 103.29 15.848 103.69 16.056C104.09 16.264 104.698 16.48 105.514 16.704C106.394 16.96 107.106 17.208 107.65 17.448C108.21 17.688 108.69 18.048 109.09 18.528C109.506 18.992 109.714 19.6 109.714 20.352C109.714 21.552 109.234 22.496 108.274 23.184C107.33 23.856 106.05 24.192 104.434 24.192ZM124.784 11.832L123.824 24H120.248L120.368 22.44C119.968 23 119.448 23.432 118.808 23.736C118.168 24.04 117.464 24.192 116.696 24.192C115.672 24.192 114.768 23.96 113.984 23.496C113.2 23.016 112.592 22.336 112.16 21.456C111.728 20.576 111.512 19.536 111.512 18.336C111.512 17.008 111.752 15.832 112.232 14.808C112.728 13.768 113.416 12.96 114.296 12.384C115.176 11.808 116.184 11.52 117.32 11.52C118.168 11.52 118.912 11.688 119.552 12.024C120.192 12.344 120.704 12.816 121.088 13.44L121.208 11.832H124.784ZM117.896 21.456C118.776 21.456 119.472 21.112 119.984 20.424C120.496 19.736 120.752 18.816 120.752 17.664C120.752 16.544 120.52 15.704 120.056 15.144C119.592 14.568 118.92 14.28 118.04 14.28C117.128 14.28 116.408 14.632 115.88 15.336C115.368 16.024 115.112 16.96 115.112 18.144C115.112 19.216 115.352 20.04 115.832 20.616C116.312 21.176 117 21.456 117.896 21.456Z" fill="#139929"/>
<g clip-path="url(#clip0)">
<path d="M87.8594 49.9473V40L63.1505 59.8947L38.1403 40V49.9473L63.1505 69.842L87.8594 49.9473Z" fill="#139929"/>
<path d="M87.8594 70.1057V60.1583L63.1505 80.053L38.1403 60.1583V70.1057L63.1505 90.0003L87.8594 70.1057Z" fill="#139929"/>
</g>
<defs>
<clipPath id="clip0">
<rect width="50" height="50" fill="white" transform="translate(88 40) rotate(90)"/>
</clipPath>
</defs>
</svg>
