<?xml version="1.0" encoding="utf-8"?>
<!-- Generator: Adobe Illustrator 25.2.3, SVG Export Plug-In . SVG Version: 6.00 Build 0)  -->
<svg version="1.1" id="Layer_1" xmlns="http://www.w3.org/2000/svg" xmlns:xlink="http://www.w3.org/1999/xlink" x="0px" y="0px"
	 viewBox="0 0 263 319" style="enable-background:new 0 0 263 319;" xml:space="preserve">
<style type="text/css">
	.st0{fill-rule:evenodd;clip-rule:evenodd;fill:#FFFFFF;filter:url(#Adobe_OpacityMaskFilter);}
	.st1{mask:url(#path-1-inside-1_1_);fill:#979797;}
	.st2{fill:#4F4F4F;}
	.st3{fill:#FA910B;}
	.st4{fill:#D22E2E;}
</style>
<defs>
	<filter id="Adobe_OpacityMaskFilter" filterUnits="userSpaceOnUse" x="40" y="-3" width="226" height="100">
		<feColorMatrix  type="matrix" values="1 0 0 0 0  0 1 0 0 0  0 0 1 0 0  0 0 0 1 0"/>
	</filter>
</defs>
<mask maskUnits="userSpaceOnUse" x="40" y="-3" width="226" height="100" id="path-1-inside-1_1_">
	<path class="st0" d="M85.3,31.9c0,0.6,0,1.3,0.1,1.9c-5,2.1-8.7,7.4-9.5,13.7c-2.2-1.7-4.9-2.7-7.9-2.7c-7.1,0-12.9,5.8-12.9,12.9
		c0,2.6,0.7,4.9,2,7c-0.4,0-0.8-0.1-1.2-0.1c-7.1,0-12.9,5.8-12.9,12.9c0,7.1,5.8,12.9,12.9,12.9s12.9-5.8,12.9-12.9
		c0-2.6-0.7-4.9-2-7c0.4,0,0.8,0.1,1.2,0.1c5.6,0,10.3-3.5,12.1-8.4c2.6,3.1,6.3,5,10.3,5c2.2,0,4.2-0.6,6.1-1.5
		c0.8,10.5,13,18.8,28,18.8c5.4,0,10.5-1.1,14.8-3c0.7,0.1,1.3,0.2,2,0.4c2.1,5,7.9,8.7,14.7,8.7c3.4,0,6.6-0.9,9.1-2.5
		c3.8,5.6,19.8,7.6,38,4.3c16.4-2.9,29.6-9.2,33.3-15.2c1.1,0.3,2.2,0.4,3.3,0.4c7.1,0,12.9-5.8,12.9-12.9c0-0.7-0.1-1.3-0.1-2
		c6-1.1,10.5-6.4,10.5-12.7c0-3.4-1.3-6.4-3.4-8.7c1.1-2.1,1.7-4.4,1.7-6.8c0-10.8-12.1-19.5-27.2-19.8c-3.2-5-11.8-8.6-22-8.6
		c-3.3,0-6.5,0.4-9.4,1.1C198.9,2.9,191,0,181.9,0c-8.4,0-15.7,2.5-19.8,6.1c-7.2-1.6-17.7-1.6-29.1,0.4
		c-14.3,2.6-26.1,7.6-31.4,12.9c-1.1-0.3-2.2-0.5-3.4-0.5C91.1,19,85.3,24.8,85.3,31.9z"/>
</mask>
<path class="st1" d="M85.4,33.8l1.2,2.8l2.1-0.9l-0.3-2.3L85.4,33.8z M75.9,47.6l-1.8,2.4l4.2,3.2l0.6-5.2L75.9,47.6z M57.1,64.8
	l-0.3,3l6.1,0.5l-3.3-5.1L57.1,64.8z M66.9,70.7l0.3-3L61,67.2l3.3,5.1L66.9,70.7z M80.2,62.3l2.3-2l-3.3-3.8l-1.8,4.8L80.2,62.3z
	 M96.5,65.7l3-0.2l-0.3-4.6l-4.1,2.2L96.5,65.7z M139.3,81.6l0.6-2.9l-0.9-0.2l-0.9,0.4L139.3,81.6z M141.4,81.9l2.8-1.2l-0.6-1.5
	l-1.6-0.3L141.4,81.9z M165.1,88.1l2.5-1.7l-1.6-2.4l-2.4,1.5L165.1,88.1z M203.1,92.4l0.5,3l0,0L203.1,92.4z M236.4,77.2l0.8-2.9
	l-2.2-0.6l-1.2,1.9L236.4,77.2z M252.5,62.8l-0.6-2.9l-2.8,0.5l0.4,2.9L252.5,62.8z M259.6,41.3l-2.7-1.4l-1,1.9l1.4,1.5L259.6,41.3
	z M234.1,14.7l-2.5,1.6l0.9,1.4l1.6,0L234.1,14.7z M202.7,7.1l-2.2,2l1.2,1.3l1.7-0.4L202.7,7.1z M162.1,6.1l-0.7,2.9l1.5,0.3l1.2-1
	L162.1,6.1z M133,6.5l0.5,3l0,0L133,6.5z M101.6,19.4l-0.8,2.9l1.7,0.5l1.2-1.2L101.6,19.4z M88.4,33.4c-0.1-0.5-0.1-1-0.1-1.5h-6
	c0,0.8,0.1,1.6,0.2,2.3L88.4,33.4z M78.9,47.9c0.7-5.5,3.8-9.7,7.7-11.3l-2.4-5.5C78.1,33.7,73.8,40,73,47.2L78.9,47.9z M68,47.9
	c2.3,0,4.4,0.8,6.1,2.1l3.7-4.7c-2.7-2.1-6.1-3.3-9.8-3.3V47.9z M58.1,57.8c0-5.5,4.5-9.9,9.9-9.9v-6c-8.8,0-15.9,7.1-15.9,15.9
	H58.1z M59.6,63.1c-1-1.5-1.6-3.4-1.6-5.3h-6c0,3.1,0.9,6.1,2.5,8.6L59.6,63.1z M55.9,67.7c0.3,0,0.6,0,0.9,0l0.5-6
	c-0.5,0-0.9-0.1-1.4-0.1V67.7z M46,77.6c0-5.5,4.5-9.9,9.9-9.9v-6c-8.8,0-15.9,7.1-15.9,15.9H46z M55.9,87.6c-5.5,0-9.9-4.5-9.9-9.9
	h-6c0,8.8,7.1,15.9,15.9,15.9V87.6z M65.9,77.6c0,5.5-4.5,9.9-9.9,9.9v6c8.8,0,15.9-7.1,15.9-15.9H65.9z M64.3,72.3
	c1,1.5,1.6,3.4,1.6,5.3h6c0-3.1-0.9-6.1-2.5-8.6L64.3,72.3z M68,67.7c-0.3,0-0.6,0-0.9,0l-0.5,6c0.5,0,0.9,0.1,1.4,0.1V67.7z
	 M77.3,61.3c-1.4,3.8-5.1,6.5-9.3,6.5v6c6.9,0,12.7-4.3,14.9-10.4L77.3,61.3z M90.5,64.3c-3,0-5.9-1.4-8-3.9l-4.5,3.9
	c3.1,3.6,7.6,6,12.6,6V64.3z M95.1,63.1c-1.4,0.8-3,1.2-4.7,1.2v6c2.7,0,5.2-0.7,7.5-1.9L95.1,63.1z M124.5,81.5
	c-7,0-13.2-1.9-17.7-5c-4.5-3-7.1-7-7.4-11.1l-6,0.4c0.5,6.4,4.4,11.8,10,15.6c5.6,3.8,13,6,21,6V81.5z M138.1,78.8
	c-3.9,1.7-8.6,2.7-13.6,2.7v6c5.8,0,11.3-1.2,16-3.2L138.1,78.8z M141.9,79c-0.7-0.1-1.3-0.2-2-0.4l-1.1,5.9
	c0.7,0.1,1.4,0.3,2.1,0.4L141.9,79z M156,87.6c-5.8,0-10.3-3.1-11.9-6.8l-5.5,2.3c2.7,6.3,9.7,10.5,17.4,10.5V87.6z M163.6,85.6
	c-2.1,1.3-4.7,2-7.6,2v6c3.9,0,7.6-1.1,10.7-2.9L163.6,85.6z M202.6,89.5c-8.9,1.6-17.1,1.9-23.5,1.2c-3.2-0.4-5.8-1-7.8-1.8
	c-2-0.8-3.1-1.7-3.6-2.4l-5,3.4c1.4,2.1,3.8,3.6,6.4,4.6c2.6,1,5.8,1.8,9.4,2.2c7.1,0.8,15.9,0.5,25.3-1.2L202.6,89.5z M233.9,75.6
	c-1.4,2.2-4.9,5-10.6,7.6c-5.5,2.6-12.7,4.8-20.7,6.2l1.1,5.9c8.4-1.5,16-3.9,22.1-6.7c5.9-2.7,10.8-6.1,13.2-9.9L233.9,75.6z
	 M239.7,74.6c-0.9,0-1.7-0.1-2.5-0.3l-1.5,5.8c1.3,0.3,2.7,0.5,4.1,0.5V74.6z M249.6,64.7c0,5.5-4.5,9.9-9.9,9.9v6
	c8.8,0,15.9-7.1,15.9-15.9H249.6z M249.5,63.2c0.1,0.5,0.1,1,0.1,1.5h6c0-0.8-0.1-1.6-0.2-2.4L249.5,63.2z M260,50
	c0,4.8-3.5,8.9-8.1,9.8l1.1,5.9c7.4-1.4,12.9-7.9,12.9-15.7H260z M257.4,43.3c1.6,1.8,2.6,4.1,2.6,6.7h6c0-4.2-1.6-7.9-4.2-10.8
	L257.4,43.3z M258.3,34.5c0,1.9-0.5,3.7-1.3,5.4l5.3,2.7c1.3-2.5,2-5.3,2-8.2H258.3z M234,17.7c7,0.1,13.2,2.3,17.6,5.4
	c4.4,3.2,6.7,7.2,6.7,11.4h6c0-6.6-3.7-12.3-9.2-16.3c-5.5-4-12.9-6.4-21-6.6L234,17.7z M212.1,9c4.7,0,9,0.8,12.5,2.2
	c3.5,1.4,5.8,3.2,7,5l5.1-3.2c-2.1-3.2-5.6-5.7-9.8-7.4C222.6,4,217.5,3,212.1,3V9z M203.4,10c2.6-0.6,5.6-1,8.7-1V3
	c-3.6,0-7,0.4-10.1,1.2L203.4,10z M181.9,3c8.6,0,15.5,2.8,18.6,6.1l4.4-4C200.3,0,191.5-3,181.9-3V3z M164.1,8.4
	c3.4-3,9.9-5.4,17.8-5.4v-6c-8.8,0-17,2.6-21.8,6.9L164.1,8.4z M133.5,9.5c11.1-2,21.2-2,27.9-0.4l1.3-5.8
	c-7.7-1.8-18.6-1.7-30.3,0.4L133.5,9.5z M103.7,21.6c2.2-2.2,6.1-4.6,11.3-6.8c5.2-2.2,11.5-4,18.5-5.3l-1.1-5.9
	c-7.3,1.3-14.1,3.3-19.7,5.6c-5.6,2.3-10.3,5.1-13.3,8.1L103.7,21.6z M98.2,22c0.9,0,1.8,0.1,2.6,0.3l1.6-5.8
	c-1.3-0.4-2.7-0.6-4.2-0.6V22z M88.3,31.9c0-5.5,4.5-9.9,9.9-9.9v-6c-8.8,0-15.9,7.1-15.9,15.9H88.3z"/>
<path class="st2" d="M95.6,50.3v1.2h-6.5v-1.1l3.4-3.8c0.4-0.5,0.8-0.9,1-1.3c0.2-0.4,0.3-0.8,0.3-1.2c0-0.5-0.1-0.9-0.4-1.1
	c-0.3-0.3-0.7-0.4-1.3-0.4c-0.9,0-1.8,0.4-2.8,1.1l-0.5-1.1c0.4-0.4,0.9-0.7,1.5-0.9c0.6-0.2,1.2-0.3,1.8-0.3c1,0,1.7,0.2,2.3,0.7
	c0.6,0.5,0.8,1.1,0.8,1.9c0,0.6-0.1,1.1-0.4,1.7c-0.3,0.5-0.7,1.1-1.3,1.7l-2.7,2.9H95.6z M100.6,51.6c-1.2,0-2-0.4-2.6-1.3
	c-0.6-0.9-0.9-2.1-0.9-3.8c0-1.7,0.3-2.9,0.9-3.8c0.6-0.9,1.5-1.3,2.6-1.3c1.2,0,2,0.4,2.6,1.3c0.6,0.9,0.9,2.1,0.9,3.8
	c0,1.7-0.3,2.9-0.9,3.8C102.6,51.2,101.8,51.6,100.6,51.6z M100.6,50.5c0.7,0,1.2-0.3,1.6-1c0.3-0.6,0.5-1.6,0.5-3
	c0-1.4-0.2-2.3-0.5-3c-0.3-0.6-0.9-0.9-1.6-0.9c-0.7,0-1.3,0.3-1.6,1c-0.3,0.6-0.5,1.6-0.5,3c0,1.4,0.2,2.4,0.5,3
	C99.3,50.2,99.9,50.5,100.6,50.5z M107.9,47.5c-0.8,0-1.4-0.3-1.8-0.8c-0.4-0.5-0.6-1.3-0.6-2.3c0-1,0.2-1.8,0.6-2.3
	c0.4-0.5,1-0.8,1.8-0.8c0.8,0,1.4,0.3,1.8,0.8c0.4,0.5,0.7,1.3,0.7,2.3c0,1-0.2,1.8-0.7,2.3C109.3,47.3,108.7,47.5,107.9,47.5z
	 M107.9,51.5l5.8-10h1.3l-5.8,10H107.9z M107.9,46.6c0.4,0,0.7-0.2,0.9-0.5c0.2-0.3,0.3-0.9,0.3-1.6c0-0.7-0.1-1.2-0.3-1.6
	c-0.2-0.3-0.5-0.5-0.9-0.5c-0.4,0-0.7,0.2-0.9,0.5c-0.2,0.3-0.3,0.8-0.3,1.6c0,0.7,0.1,1.3,0.3,1.6
	C107.2,46.4,107.5,46.6,107.9,46.6z M114.9,51.6c-0.8,0-1.4-0.3-1.8-0.8c-0.4-0.5-0.6-1.3-0.6-2.3c0-1,0.2-1.8,0.6-2.3
	c0.4-0.5,1-0.8,1.8-0.8c0.8,0,1.4,0.3,1.8,0.8c0.4,0.5,0.6,1.3,0.6,2.3c0,1-0.2,1.8-0.6,2.3C116.3,51.4,115.7,51.6,114.9,51.6z
	 M114.9,50.7c0.4,0,0.7-0.2,0.9-0.5c0.2-0.3,0.3-0.9,0.3-1.6c0-0.7-0.1-1.2-0.3-1.6c-0.2-0.3-0.5-0.5-0.9-0.5
	c-0.4,0-0.7,0.2-0.9,0.5c-0.2,0.3-0.3,0.8-0.3,1.6c0,0.7,0.1,1.3,0.3,1.6C114.2,50.5,114.5,50.7,114.9,50.7z M125.8,51.6
	c-0.7,0-1.3-0.1-1.8-0.4c-0.5-0.3-0.9-0.7-1.2-1.3c-0.3-0.6-0.4-1.2-0.4-1.9c0-0.7,0.1-1.4,0.4-1.9c0.3-0.6,0.7-1,1.2-1.3
	c0.5-0.3,1.1-0.4,1.8-0.4c0.7,0,1.3,0.1,1.8,0.4c0.5,0.3,0.9,0.7,1.2,1.3c0.3,0.6,0.4,1.2,0.4,1.9c0,0.7-0.1,1.4-0.4,1.9
	c-0.3,0.6-0.7,1-1.2,1.3C127.1,51.5,126.5,51.6,125.8,51.6z M125.8,50.5c0.7,0,1.2-0.2,1.5-0.6c0.3-0.4,0.5-1.1,0.5-1.9
	c0-0.8-0.2-1.4-0.5-1.9c-0.3-0.4-0.8-0.7-1.5-0.7c-0.6,0-1.1,0.2-1.5,0.7c-0.4,0.4-0.5,1.1-0.5,1.9c0,0.8,0.2,1.5,0.5,1.9
	C124.7,50.3,125.2,50.5,125.8,50.5z M133.9,42.4c-0.8,0-1.2,0.4-1.2,1.3v0.8h1.7v1.1h-1.7v6h-1.4v-6H130v-1.1h1.4v-0.9
	c0-0.8,0.2-1.4,0.6-1.8c0.4-0.4,1-0.6,1.7-0.6c0.4,0,0.7,0,1,0.1v1.2C134.4,42.4,134.1,42.4,133.9,42.4z M142.6,51.6
	c-0.7,0-1.3-0.1-1.9-0.4c-0.5-0.3-0.9-0.7-1.2-1.3c-0.3-0.6-0.4-1.2-0.4-1.9s0.1-1.4,0.4-1.9c0.3-0.6,0.7-1,1.2-1.3s1.2-0.5,1.9-0.5
	c0.5,0,1,0.1,1.4,0.3c0.5,0.2,0.8,0.4,1.1,0.7l-0.4,1c-0.7-0.5-1.3-0.8-2-0.8c-0.7,0-1.2,0.2-1.6,0.7c-0.4,0.4-0.6,1.1-0.6,1.9
	c0,0.8,0.2,1.4,0.6,1.9c0.4,0.4,0.9,0.6,1.6,0.6c0.7,0,1.4-0.3,2-0.8l0.4,1c-0.3,0.3-0.7,0.5-1.1,0.7
	C143.6,51.5,143.1,51.6,142.6,51.6z M153,44.5v7.1h-1.4v-1.2c-0.2,0.4-0.5,0.7-0.9,1c-0.4,0.2-0.9,0.3-1.4,0.3
	c-0.6,0-1.2-0.1-1.7-0.4c-0.5-0.3-0.8-0.7-1.1-1.3c-0.3-0.6-0.4-1.2-0.4-1.9s0.1-1.4,0.4-1.9c0.3-0.6,0.6-1,1.1-1.3s1-0.5,1.6-0.5
	c0.5,0,1,0.1,1.4,0.3c0.4,0.2,0.7,0.5,0.9,1v-1.1H153z M149.6,50.5c0.6,0,1.1-0.2,1.5-0.7c0.4-0.4,0.5-1.1,0.5-1.9
	c0-0.8-0.2-1.4-0.5-1.9c-0.3-0.4-0.8-0.7-1.5-0.7c-0.6,0-1.1,0.2-1.5,0.7c-0.4,0.4-0.5,1.1-0.5,1.9c0,0.8,0.2,1.4,0.5,1.8
	C148.4,50.3,148.9,50.5,149.6,50.5z M158.6,44.3c0.2,0,0.4,0,0.7,0.1l0,1.3c-0.3-0.1-0.5-0.1-0.8-0.1c-0.6,0-1.1,0.2-1.5,0.6
	c-0.3,0.4-0.5,0.9-0.5,1.5v3.9h-1.4v-5.1c0-0.7,0-1.4-0.1-2h1.3l0.1,1.3c0.2-0.5,0.5-0.8,0.9-1.1C157.7,44.4,158.1,44.3,158.6,44.3z
	 M164.1,44.3c0.6,0,1.2,0.1,1.6,0.4c0.5,0.3,0.8,0.7,1.1,1.3c0.3,0.6,0.4,1.2,0.4,1.9s-0.1,1.4-0.4,1.9c-0.3,0.6-0.6,1-1.1,1.3
	c-0.5,0.3-1,0.5-1.6,0.5c-0.5,0-1-0.1-1.4-0.3c-0.4-0.2-0.7-0.6-0.9-1v1.2h-1.4V41.2h1.4v4.4c0.2-0.4,0.5-0.7,0.9-1
	C163.1,44.4,163.5,44.3,164.1,44.3z M163.8,50.5c0.6,0,1.1-0.2,1.5-0.7c0.4-0.5,0.5-1.1,0.5-1.9c0-0.8-0.2-1.4-0.5-1.8
	c-0.4-0.4-0.9-0.7-1.5-0.7c-0.6,0-1.1,0.2-1.5,0.7c-0.3,0.4-0.5,1.1-0.5,1.9s0.2,1.4,0.5,1.9C162.6,50.3,163.1,50.5,163.8,50.5z
	 M171.9,51.6c-0.7,0-1.3-0.1-1.8-0.4c-0.5-0.3-0.9-0.7-1.2-1.3c-0.3-0.6-0.4-1.2-0.4-1.9c0-0.7,0.1-1.4,0.4-1.9
	c0.3-0.6,0.7-1,1.2-1.3c0.5-0.3,1.1-0.4,1.8-0.4c0.7,0,1.3,0.1,1.8,0.4c0.5,0.3,0.9,0.7,1.2,1.3c0.3,0.6,0.4,1.2,0.4,1.9
	c0,0.7-0.1,1.4-0.4,1.9c-0.3,0.6-0.7,1-1.2,1.3C173.2,51.5,172.6,51.6,171.9,51.6z M171.9,50.5c0.7,0,1.2-0.2,1.5-0.6
	c0.3-0.4,0.5-1.1,0.5-1.9c0-0.8-0.2-1.4-0.5-1.9c-0.3-0.4-0.8-0.7-1.5-0.7c-0.6,0-1.1,0.2-1.5,0.7c-0.4,0.4-0.5,1.1-0.5,1.9
	c0,0.8,0.2,1.5,0.5,1.9C170.7,50.3,171.2,50.5,171.9,50.5z M180.8,44.3c1.7,0,2.5,0.9,2.5,2.8v4.4h-1.4v-4.3c0-0.6-0.1-1.1-0.4-1.3
	c-0.2-0.3-0.6-0.4-1.1-0.4c-0.6,0-1.1,0.2-1.4,0.6c-0.4,0.4-0.5,0.9-0.5,1.5v4H177v-5.1c0-0.7,0-1.4-0.1-2h1.3l0.1,1.2
	c0.2-0.4,0.5-0.8,1-1C179.7,44.4,180.2,44.3,180.8,44.3z M195.1,48h-5c0,1.7,0.8,2.5,2.3,2.5c0.8,0,1.6-0.3,2.2-0.8l0.4,1
	c-0.3,0.3-0.7,0.5-1.2,0.7c-0.5,0.2-1,0.2-1.5,0.2c-1.1,0-2-0.3-2.7-1c-0.6-0.7-1-1.5-1-2.7c0-0.7,0.1-1.4,0.4-1.9
	c0.3-0.6,0.7-1,1.2-1.3c0.5-0.3,1.1-0.5,1.8-0.5c1,0,1.7,0.3,2.2,0.9c0.6,0.6,0.8,1.5,0.8,2.6V48z M192,45.3c-0.5,0-1,0.2-1.3,0.5
	c-0.3,0.3-0.6,0.8-0.6,1.4h3.7c-0.1-0.6-0.2-1-0.5-1.4C193,45.5,192.5,45.3,192,45.3z M204.7,44.3c1.6,0,2.4,0.9,2.4,2.8v4.4h-1.4
	v-4.3c0-0.6-0.1-1-0.3-1.3c-0.2-0.3-0.5-0.4-1-0.4c-0.5,0-1,0.2-1.3,0.6c-0.3,0.4-0.5,0.9-0.5,1.5v4h-1.4v-4.3c0-0.6-0.1-1-0.3-1.3
	c-0.2-0.3-0.5-0.4-1-0.4c-0.5,0-1,0.2-1.3,0.6c-0.3,0.4-0.5,0.9-0.5,1.5v4h-1.4v-5.1c0-0.7,0-1.4-0.1-2h1.3l0.1,1.2
	c0.2-0.4,0.5-0.8,0.9-1c0.4-0.2,0.8-0.3,1.3-0.3c1.1,0,1.8,0.5,2.1,1.4c0.2-0.4,0.5-0.8,0.9-1C203.7,44.4,204.2,44.3,204.7,44.3z
	 M209.1,44.5h1.4v7.1h-1.4V44.5z M210.6,41.4v1.5H209v-1.5H210.6z M215,51.6c-1.2,0-2.2-0.3-2.9-0.9l0.4-1c0.7,0.6,1.6,0.8,2.5,0.8
	c0.5,0,0.9-0.1,1.1-0.2c0.3-0.2,0.4-0.4,0.4-0.7c0-0.3-0.1-0.4-0.3-0.6c-0.2-0.1-0.5-0.3-0.9-0.4l-1.2-0.3c-0.6-0.1-1.1-0.4-1.4-0.7
	c-0.3-0.3-0.5-0.8-0.5-1.2c0-0.6,0.3-1.1,0.8-1.5c0.5-0.4,1.2-0.6,2-0.6c0.5,0,1,0.1,1.4,0.2c0.5,0.2,0.8,0.4,1.2,0.7l-0.4,1
	c-0.7-0.5-1.4-0.8-2.2-0.8c-0.5,0-0.8,0.1-1.1,0.3c-0.3,0.2-0.4,0.4-0.4,0.7c0,0.2,0.1,0.4,0.2,0.6c0.2,0.1,0.4,0.3,0.8,0.3l1.2,0.3
	c0.7,0.1,1.2,0.4,1.5,0.7c0.3,0.3,0.5,0.7,0.5,1.2c0,0.6-0.3,1.1-0.8,1.5C216.6,51.4,215.9,51.6,215,51.6z M222,51.6
	c-1.2,0-2.2-0.3-2.9-0.9l0.4-1c0.7,0.6,1.6,0.8,2.5,0.8c0.5,0,0.9-0.1,1.1-0.2c0.3-0.2,0.4-0.4,0.4-0.7c0-0.3-0.1-0.4-0.3-0.6
	c-0.2-0.1-0.5-0.3-0.9-0.4l-1.2-0.3c-0.6-0.1-1.1-0.4-1.4-0.7c-0.3-0.3-0.5-0.8-0.5-1.2c0-0.6,0.3-1.1,0.8-1.5
	c0.5-0.4,1.2-0.6,2-0.6c0.5,0,1,0.1,1.4,0.2c0.5,0.2,0.8,0.4,1.2,0.7l-0.4,1c-0.7-0.5-1.4-0.8-2.2-0.8c-0.5,0-0.8,0.1-1.1,0.3
	c-0.3,0.2-0.4,0.4-0.4,0.7c0,0.2,0.1,0.4,0.2,0.6c0.2,0.1,0.4,0.3,0.8,0.3l1.2,0.3c0.7,0.1,1.2,0.4,1.5,0.7c0.3,0.3,0.5,0.7,0.5,1.2
	c0,0.6-0.3,1.1-0.8,1.5C223.6,51.4,222.9,51.6,222,51.6z M226.5,44.5h1.4v7.1h-1.4V44.5z M228,41.4v1.5h-1.6v-1.5H228z M233,51.6
	c-0.7,0-1.3-0.1-1.8-0.4c-0.5-0.3-0.9-0.7-1.2-1.3c-0.3-0.6-0.4-1.2-0.4-1.9c0-0.7,0.1-1.4,0.4-1.9c0.3-0.6,0.7-1,1.2-1.3
	c0.5-0.3,1.1-0.4,1.8-0.4c0.7,0,1.3,0.1,1.8,0.4c0.5,0.3,0.9,0.7,1.2,1.3c0.3,0.6,0.4,1.2,0.4,1.9c0,0.7-0.1,1.4-0.4,1.9
	c-0.3,0.6-0.7,1-1.2,1.3C234.3,51.5,233.7,51.6,233,51.6z M233,50.5c0.7,0,1.2-0.2,1.5-0.6c0.3-0.4,0.5-1.1,0.5-1.9
	c0-0.8-0.2-1.4-0.5-1.9c-0.3-0.4-0.8-0.7-1.5-0.7c-0.6,0-1.1,0.2-1.5,0.7c-0.4,0.4-0.5,1.1-0.5,1.9c0,0.8,0.2,1.5,0.5,1.9
	C231.9,50.3,232.4,50.5,233,50.5z M241.9,44.3c1.7,0,2.5,0.9,2.5,2.8v4.4H243v-4.3c0-0.6-0.1-1.1-0.4-1.3c-0.2-0.3-0.6-0.4-1.1-0.4
	c-0.6,0-1.1,0.2-1.4,0.6c-0.4,0.4-0.5,0.9-0.5,1.5v4h-1.4v-5.1c0-0.7,0-1.4-0.1-2h1.3l0.1,1.2c0.2-0.4,0.5-0.8,1-1
	C240.9,44.4,241.3,44.3,241.9,44.3z M248.9,51.6c-1.2,0-2.2-0.3-2.9-0.9l0.4-1c0.7,0.6,1.6,0.8,2.5,0.8c0.5,0,0.9-0.1,1.1-0.2
	c0.3-0.2,0.4-0.4,0.4-0.7c0-0.3-0.1-0.4-0.3-0.6c-0.2-0.1-0.5-0.3-0.9-0.4l-1.2-0.3c-0.6-0.1-1.1-0.4-1.4-0.7
	c-0.3-0.3-0.5-0.8-0.5-1.2c0-0.6,0.3-1.1,0.8-1.5c0.5-0.4,1.2-0.6,2-0.6c0.5,0,1,0.1,1.4,0.2c0.5,0.2,0.8,0.4,1.2,0.7l-0.4,1
	c-0.7-0.5-1.4-0.8-2.2-0.8c-0.5,0-0.8,0.1-1.1,0.3c-0.3,0.2-0.4,0.4-0.4,0.7c0,0.2,0.1,0.4,0.2,0.6c0.2,0.1,0.4,0.3,0.8,0.3l1.2,0.3
	c0.7,0.1,1.2,0.4,1.5,0.7c0.3,0.3,0.5,0.7,0.5,1.2c0,0.6-0.3,1.1-0.8,1.5C250.5,51.4,249.8,51.6,248.9,51.6z"/>
<path class="st3" d="M15.6,253.9c0-0.1,0-0.3,0-0.4c0-3.3,1.3-6.5,3.7-8.8c2.3-2.3,5.5-3.7,8.8-3.7v-57.8l-11.2-8.4
	c-0.4-0.3-0.7-0.7-0.9-1.1c-0.2-0.4-0.3-0.9-0.3-1.4c0-0.5,0.1-1,0.3-1.4c0.2-0.4,0.5-0.8,0.9-1.1l26.8-19.6V116
	c-0.8,0-1.6-0.3-2.2-0.9c-0.6-0.6-0.9-1.4-0.9-2.2v-12.5c0-0.8,0.3-1.6,0.9-2.2c0.6-0.6,1.4-0.9,2.2-0.9H75c0.8,0,1.6,0.3,2.2,0.9
	c0.6,0.6,0.9,1.4,0.9,2.2v12.5c0,0.8-0.3,1.6-0.9,2.2c-0.6,0.6-1.4,0.9-2.2,0.9v11.3l23.2-16.9c0.5-0.4,1.2-0.6,1.8-0.6
	c0.7,0,1.3,0.2,1.8,0.6l81.2,59.4c0.4,0.3,0.7,0.7,0.9,1.1c0.2,0.4,0.3,0.9,0.3,1.4c0,0.5-0.1,1-0.3,1.4c-0.2,0.4-0.5,0.8-0.9,1.1
	l-11.2,8.4V241c3.3,0,6.5,1.3,8.8,3.7c2.3,2.3,3.7,5.5,3.7,8.8c0,0.1,0,0.3,0,0.4c2.9,0.8,5.5,2.6,7.2,5.1c1.7,2.5,2.4,5.6,2.1,8.6
	c-0.4,3-1.9,5.8-4.1,7.8c-2.3,2-5.2,3.1-8.3,3.1H18.7c-3,0-6-1.1-8.3-3.1c-2.3-2-3.8-4.8-4.1-7.8c-0.4-3,0.3-6.1,2.1-8.6
	C10.1,256.5,12.7,254.7,15.6,253.9L15.6,253.9z M71.9,103.5h-25v6.2h25V103.5z M68.7,131.6V116H50v29.5l19-13.9H68.7z M100,116.7
	l-76,55.5l7.3,5.5l66.9-48.6c0.5-0.4,1.2-0.6,1.8-0.6c0.7,0,1.3,0.2,1.8,0.6l66.9,48.6l7.3-5.5L100,116.7z M187.5,266
	c0-1.6-0.6-3.2-1.8-4.4c-1.2-1.2-2.7-1.8-4.4-1.9h0c-0.2,0-0.3,0-0.5,0.1c-0.5,0-1-0.1-1.5-0.3c-0.5-0.2-0.9-0.5-1.2-1
	s-0.5-0.9-0.6-1.4s0-1,0.2-1.5c0.3-0.7,0.4-1.4,0.4-2.1c0-1.7-0.7-3.2-1.8-4.4c-1.2-1.2-2.8-1.8-4.4-1.8v25h9.4
	c1.7,0,3.2-0.7,4.4-1.8C186.8,269.2,187.5,267.7,187.5,266L187.5,266z M53.1,272.2h37.5v-68.8H53.1V272.2z M46.9,272.2v-71.9
	c0-0.8,0.3-1.6,0.9-2.2c0.6-0.6,1.4-0.9,2.2-0.9h43.8c0.8,0,1.6,0.3,2.2,0.9c0.6,0.6,0.9,1.4,0.9,2.2v71.9h68.8v-89L100,135.5
	l-65.6,47.7v89H46.9z M18.7,272.2h9.4v-25c-1.7,0-3.2,0.7-4.4,1.8c-1.2,1.2-1.8,2.8-1.8,4.4c0,0.7,0.1,1.4,0.4,2.1
	c0.2,0.5,0.2,1,0.2,1.5c-0.1,0.5-0.3,1-0.6,1.4c-0.3,0.4-0.7,0.7-1.2,1c-0.5,0.2-1,0.3-1.5,0.3c-0.2,0-0.3,0-0.5-0.1h0
	c-1.7,0-3.2,0.7-4.4,1.9s-1.8,2.8-1.8,4.4c0,1.7,0.7,3.2,1.9,4.4C15.5,271.6,17.1,272.3,18.7,272.2L18.7,272.2z"/>
<path class="st3" d="M112.5,197.2H150c0.8,0,1.6,0.3,2.2,0.9c0.6,0.6,0.9,1.4,0.9,2.2v43.8c0,0.8-0.3,1.6-0.9,2.2
	c-0.6,0.6-1.4,0.9-2.2,0.9h-37.5c-0.8,0-1.6-0.3-2.2-0.9c-0.6-0.6-0.9-1.4-0.9-2.2v-43.8c0-0.8,0.3-1.6,0.9-2.2
	C110.9,197.6,111.7,197.2,112.5,197.2z M115.6,219.1h12.5v-15.6h-12.5V219.1z M134.4,203.5v15.6h12.5v-15.6H134.4z M146.9,225.4
	h-12.5V241h12.5V225.4z M128.1,241v-15.6h-12.5V241H128.1z"/>
<path class="st3" d="M78.4,235.9c-0.7-1.6,0.1-3.4,1.7-4.1c1.6-0.7,3.4,0.1,4.1,1.7c0.7,1.6-0.1,3.4-1.7,4.1
	C80.9,238.3,79,237.5,78.4,235.9z"/>
<path class="st4" d="M47.5,306.9h5l-0.5,6.2c-0.6,0.3-1.3,0.6-2.2,0.7c-0.8,0.2-1.7,0.3-2.6,0.3c-1.3,0-2.4-0.2-3.3-0.7
	c-0.9-0.5-1.6-1.2-2.1-2.1c-0.5-0.9-0.7-2-0.7-3.3c0-1.4,0.3-2.7,0.8-3.7c0.6-1.1,1.3-1.9,2.4-2.4c1-0.6,2.2-0.9,3.6-0.9
	c1.9,0,3.5,0.5,4.6,1.5l-1.1,2c-0.6-0.4-1.1-0.8-1.6-1s-1.1-0.3-1.8-0.3c-1.3,0-2.3,0.4-3,1.3c-0.7,0.8-1.1,2-1.1,3.5
	c0,1.3,0.3,2.2,0.9,2.9c0.6,0.7,1.5,1,2.8,1c0.7,0,1.4-0.1,2-0.3l0.2-2.8h-2.5L47.5,306.9z M60.2,304.7c0.4,0,0.7,0.1,1,0.2
	l-0.2,2.5c-0.4-0.2-0.9-0.3-1.3-0.3c-0.7,0-1.3,0.2-1.7,0.6c-0.4,0.4-0.6,0.9-0.7,1.7l-0.4,4.8h-2.7l0.5-6.5c0-0.8,0.1-1.5,0.1-1.9
	c0-0.3,0-0.6,0-0.7h2.6l0,1.4c0.3-0.5,0.7-0.9,1.2-1.2S59.6,304.7,60.2,304.7z M71.2,304.9l-0.7,9.1h-2.7l0.1-1.2
	c-0.3,0.4-0.7,0.7-1.2,1c-0.5,0.2-1,0.3-1.6,0.3c-0.8,0-1.4-0.2-2-0.5c-0.6-0.4-1-0.9-1.4-1.5c-0.3-0.7-0.5-1.4-0.5-2.3
	c0-1,0.2-1.9,0.5-2.6c0.4-0.8,0.9-1.4,1.5-1.8s1.4-0.6,2.3-0.6c0.6,0,1.2,0.1,1.7,0.4c0.5,0.2,0.9,0.6,1.2,1.1l0.1-1.2H71.2z
	 M66.1,312.1c0.7,0,1.2-0.3,1.6-0.8c0.4-0.5,0.6-1.2,0.6-2.1c0-0.8-0.2-1.5-0.5-1.9c-0.3-0.4-0.9-0.6-1.5-0.6
	c-0.7,0-1.2,0.3-1.6,0.8c-0.4,0.5-0.6,1.2-0.6,2.1c0,0.8,0.2,1.4,0.5,1.9C64.9,311.9,65.4,312.1,66.1,312.1z M82.9,300.8L81.8,314
	h-2.7l0.1-1.2c-0.3,0.4-0.7,0.7-1.2,1c-0.5,0.2-1,0.3-1.6,0.3c-0.8,0-1.4-0.2-2-0.5c-0.6-0.4-1-0.9-1.4-1.5
	c-0.3-0.7-0.5-1.4-0.5-2.3c0-1,0.2-1.9,0.5-2.6c0.4-0.8,0.9-1.4,1.5-1.8c0.7-0.4,1.4-0.6,2.3-0.6c0.6,0,1.2,0.1,1.6,0.4
	c0.5,0.2,0.9,0.6,1.2,1l0.4-5.3H82.9z M77.4,312.1c0.7,0,1.2-0.3,1.6-0.8c0.4-0.5,0.6-1.2,0.6-2.1c0-0.8-0.2-1.5-0.5-1.9
	c-0.3-0.4-0.9-0.6-1.5-0.6c-0.7,0-1.2,0.3-1.6,0.8c-0.4,0.5-0.6,1.2-0.6,2.1c0,0.8,0.2,1.4,0.5,1.9S76.7,312.1,77.4,312.1z
	 M88.6,304.6c1.2,0,2.2,0.4,2.9,1.1c0.7,0.7,1.1,1.7,1.1,3c0,0.3,0,0.6-0.1,0.9h-6c0,0.8,0.2,1.4,0.6,1.8c0.4,0.4,1,0.6,1.7,0.6
	c1,0,1.9-0.3,2.7-0.9l0.6,1.8c-0.4,0.3-0.9,0.6-1.5,0.8c-0.6,0.2-1.3,0.3-1.9,0.3c-0.9,0-1.8-0.2-2.5-0.5c-0.7-0.4-1.3-0.9-1.7-1.6
	c-0.4-0.7-0.6-1.5-0.6-2.4c0-1,0.2-1.8,0.6-2.6c0.4-0.8,0.9-1.4,1.6-1.8C86.9,304.9,87.7,304.6,88.6,304.6z M88.7,306.5
	c-1.1,0-1.7,0.6-2,1.8h3.7c0-0.6-0.2-1-0.5-1.3C89.6,306.7,89.2,306.5,88.7,306.5z M97.6,314.1c-1.6,0-3-0.4-4.2-1.1l0.9-1.9
	c0.5,0.3,1,0.6,1.6,0.8c0.6,0.2,1.2,0.3,1.7,0.3c0.5,0,0.9-0.1,1.1-0.2c0.2-0.1,0.4-0.3,0.4-0.6c0-0.3-0.1-0.4-0.4-0.6
	c-0.3-0.1-0.7-0.3-1.4-0.5c-0.7-0.2-1.2-0.4-1.6-0.5c-0.4-0.2-0.8-0.4-1.1-0.8c-0.3-0.4-0.4-0.8-0.4-1.4c0-0.6,0.2-1.1,0.5-1.5
	c0.3-0.4,0.8-0.8,1.4-1c0.6-0.3,1.3-0.4,2.1-0.4c0.7,0,1.3,0.1,2,0.3c0.7,0.2,1.2,0.5,1.7,0.8l-0.9,1.8c-0.4-0.3-0.9-0.6-1.4-0.7
	c-0.5-0.2-1-0.3-1.4-0.3c-0.5,0-0.9,0.1-1.1,0.2c-0.3,0.1-0.4,0.3-0.4,0.6c0,0.3,0.2,0.5,0.4,0.6c0.3,0.2,0.8,0.3,1.4,0.5
	c0.7,0.2,1.2,0.4,1.6,0.6c0.4,0.2,0.8,0.5,1.1,0.8c0.3,0.3,0.5,0.8,0.5,1.4c0,0.9-0.4,1.6-1.1,2.1C99.8,313.9,98.8,314.1,97.6,314.1
	z M114.4,314.2c-1.2,0-2.3-0.2-3.2-0.7c-0.9-0.5-1.6-1.2-2.1-2.1c-0.5-0.9-0.7-2-0.7-3.3c0-1.4,0.3-2.6,0.8-3.7s1.3-1.9,2.3-2.4
	c1-0.6,2.2-0.9,3.5-0.9c0.9,0,1.7,0.1,2.4,0.4c0.8,0.3,1.4,0.6,2,1.1l-1.1,2c-0.5-0.4-1.1-0.7-1.6-0.9c-0.5-0.2-1.1-0.3-1.7-0.3
	c-1.2,0-2.2,0.4-2.9,1.3c-0.7,0.8-1,2-1,3.5c0,1.2,0.3,2.2,0.8,2.9c0.6,0.7,1.4,1,2.4,1c1.1,0,2.2-0.4,3.4-1.2l0.7,2
	c-0.5,0.5-1.1,0.8-1.9,1.1C116.1,314,115.3,314.2,114.4,314.2z M123.5,311.1l-0.1,1.8c-0.1,0.7-0.2,1.4-0.5,1.9
	c-0.3,0.6-0.8,1.2-1.4,1.7l-1-0.8c0.6-0.6,1.1-1.2,1.2-1.8h-1.3l0.2-2.9H123.5z M131.5,301.2h4.9c1.3,0,2.4,0.2,3.3,0.7
	c0.9,0.5,1.7,1.2,2.2,2.1s0.8,2,0.8,3.2c0,1.4-0.3,2.7-0.8,3.7c-0.6,1-1.4,1.8-2.4,2.3c-1,0.5-2.3,0.8-3.8,0.8h-5.2L131.5,301.2z
	 M135.5,311.7c1.5,0,2.6-0.4,3.3-1.1c0.7-0.8,1.1-1.9,1.1-3.5c0-1.2-0.3-2.1-1-2.7c-0.6-0.6-1.6-1-2.8-1h-1.9l-0.7,8.3H135.5z"/>
</svg>
