<?xml version="1.0" encoding="utf-8"?>
<!-- Generator: Adobe Illustrator 25.2.3, SVG Export Plug-In . SVG Version: 6.00 Build 0)  -->
<svg version="1.1" id="Layer_1" xmlns="http://www.w3.org/2000/svg" xmlns:xlink="http://www.w3.org/1999/xlink" x="0px" y="0px"
	 viewBox="0 0 263 319" style="enable-background:new 0 0 263 319;" xml:space="preserve">
<style type="text/css">
	.st0{clip-path:url(#SVGID_2_);}
	.st1{fill:#F2994A;}
	.st2{fill:#FA910B;}
	.st3{fill:#FA910B;stroke:#FA910B;}
	.st4{fill:#333333;}
	.st5{fill:#139929;}
</style>
<g>
	<defs>
		<rect id="SVGID_1_" x="23" y="78" width="217.4" height="200"/>
	</defs>
	<clipPath id="SVGID_2_">
		<use xlink:href="#SVGID_1_"  style="overflow:visible;"/>
	</clipPath>
	<g class="st0">
		<path class="st1" d="M240.3,201.7c0-0.3-0.1-0.6-0.2-0.9c0-0.1-0.1-0.2-0.1-0.3c-0.2-0.4-0.4-0.8-0.7-1.1l-58-58
			c-0.7-0.7-1.6-1.1-2.5-1.1h-78.2c1.3-2.8,2.1-5.9,2.1-9.1c0-10.6-7.7-19.7-18.2-21.5c0.1-0.7,0.1-1.4,0.1-2.1
			c0-12-9.7-21.7-21.7-21.7c-12,0-21.7,9.7-21.7,21.7c0,0.7,0,1.4,0.1,2.1c-11.8,1.9-19.8,13-18,24.8c0.5,3,1.6,5.9,3.3,8.5
			c-4.9,7.5-4.7,17.2,0.5,24.5c-6,8.3-5.3,19.7,1.6,27.2l-4.6,4.6c-0.7,0.7-1.1,1.6-1.1,2.6v72.5c0,2,1.6,3.6,3.6,3.6h210.1
			c2,0,3.6-1.6,3.6-3.6v-72.5C240.4,201.8,240.4,201.8,240.3,201.7z M228,198.3h-22.3l-13.6-14.5h21.4L228,198.3z M146.2,165.7h19.1
			l10.2,10.9h-19.1L146.2,165.7z M146.4,176.6h-24.1l-10.9-10.9h24.8L146.4,176.6z M182.2,183.8l13.6,14.5h-19.1l-13.6-14.5H182.2z
			 M206.3,176.6h-20.9l-10.2-10.9h20.3L206.3,176.6z M177.3,147.6l10.9,10.9h-19.8l-10.2-10.9H177.3z M148.2,147.6l10.2,10.9h-19.1
			l-10.2-10.9H148.2z M119.3,147.6l10.2,10.9h-25.2l-10.9-10.9H119.3z M33.8,140.7c-2.3-2.6-3.6-6-3.6-9.4c0-8,6.5-14.5,14.5-14.5h0
			c0.2,0,0.5,0.1,0.7,0.1c2,0.1,3.7-1.4,3.8-3.4c0-0.4,0-0.9-0.2-1.3c-0.5-1.4-0.8-2.9-0.8-4.4c0-8,6.5-14.5,14.5-14.5
			c8,0,14.5,6.5,14.5,14.5c0,1.5-0.3,3-0.8,4.4c-0.6,1.9,0.5,3.9,2.4,4.5c0.4,0.1,0.8,0.2,1.3,0.2c0.3,0,0.5,0,0.8-0.1
			c8,0,14.5,6.5,14.5,14.5c0,3.3-1.2,6.5-3.3,9.1h-7.6c-0.4,0-0.8,0.1-1.2,0.2c0,0-0.1,0-0.1,0c0,0-0.1,0.1-0.2,0.1
			c-0.3,0.1-0.6,0.3-0.8,0.5c-0.1,0-0.1,0.1-0.2,0.1l-15.6,15.6v-38.4c0-2-1.6-3.6-3.6-3.6c-2,0-3.6,1.6-3.6,3.6v20.2l-8.3-8.3
			c-1.4-1.4-3.7-1.4-5.1,0.1c-1.4,1.4-1.4,3.6,0,5l13.4,13.4v15.1l-3.6,3.6l-4.7-4.7c-1.4-1.4-3.7-1.4-5.1,0.1c-1.4,1.4-1.4,3.6,0,5
			l4.7,4.7l-16.7,16.7c-2.3-2.6-3.6-6-3.6-9.4c0-3.8,1.5-7.4,4.2-10.1c1.4-1.4,1.4-3.7,0-5.1c-5.3-5.3-5.6-13.9-0.6-19.6
			C35,144,35,142,33.8,140.7z M99.1,270.8h-29v-43.5h29V270.8z M138.9,270.8h-32.6v-47.1c0-2-1.6-3.6-3.6-3.6H66.5
			c-2,0-3.6,1.6-3.6,3.6v47.1H30.3v-67.3l6.2-6.2l28.9-28.9l19.2-19.2l54.3,54.3V270.8z M129.6,183.8h23.7l13.6,14.5h-22.7
			L129.6,183.8z M233.1,270.8h-87v-65.2h87V270.8z"/>
		<path class="st2" d="M101,192c0-3.4-1-6.6-2.9-9.4c-1.9-2.8-4.5-5-7.6-6.3c-3.1-1.3-6.5-1.6-9.8-1c-3.3,0.7-6.3,2.3-8.7,4.7
			c-2.4,2.4-4,5.4-4.7,8.7c-0.7,3.3-0.3,6.7,1,9.8c1.3,3.1,3.5,5.8,6.3,7.6c2.8,1.9,6.1,2.9,9.4,2.9c4.5,0,8.8-1.8,12-5
			C99.2,200.8,101,196.5,101,192L101,192z M71.9,192c0-2.4,0.7-4.7,2-6.7c1.3-2,3.2-3.6,5.4-4.5c2.2-0.9,4.7-1.2,7-0.7
			c2.4,0.5,4.5,1.6,6.2,3.3c1.7,1.7,2.9,3.9,3.3,6.2c0.5,2.4,0.2,4.8-0.7,7c-0.9,2.2-2.5,4.1-4.5,5.4c-2,1.3-4.3,2-6.7,2
			c-3.2,0-6.3-1.3-8.6-3.6S71.9,195.2,71.9,192L71.9,192z"/>
		<path class="st3" d="M211.1,224.5h-38.2c-0.6,0-1.3,0.3-1.7,0.7c-0.5,0.5-0.7,1.1-0.7,1.7v27.1c0,0.6,0.3,1.3,0.7,1.7
			c0.5,0.5,1.1,0.7,1.7,0.7h38.2c0.6,0,1.3-0.3,1.7-0.7c0.5-0.5,0.7-1.1,0.7-1.7v-27.1c0-0.6-0.3-1.3-0.7-1.7
			C212.3,224.8,211.7,224.5,211.1,224.5z M208.7,238.1h-14.3v-8.7h14.3V238.1z M189.6,229.4v8.7h-14.3v-8.7H189.6z M175.3,242.9
			h14.3v8.7h-14.3V242.9z M194.4,251.6v-8.7h14.3v8.7H194.4z"/>
	</g>
</g>
<path class="st4" d="M90.8,40v1h-7.2v-0.9l5.7-8.1h-5.7v-1h7v0.8L85,40H90.8z M98.2,37.4h-5.2c0,0.9,0.2,1.6,0.6,2
	c0.4,0.5,1,0.7,1.8,0.7c0.8,0,1.6-0.3,2.3-0.8l0.4,0.8c-0.3,0.3-0.7,0.5-1.2,0.7c-0.5,0.2-1,0.3-1.5,0.3c-1.1,0-2-0.3-2.6-1
	c-0.6-0.7-0.9-1.5-0.9-2.7c0-0.7,0.1-1.4,0.4-1.9c0.3-0.6,0.7-1,1.2-1.3c0.5-0.3,1.1-0.5,1.7-0.5c0.9,0,1.7,0.3,2.2,0.9
	c0.5,0.6,0.8,1.4,0.8,2.5V37.4z M95.3,34.7c-0.6,0-1.1,0.2-1.4,0.5c-0.4,0.4-0.6,0.9-0.7,1.5h4.1c-0.1-0.7-0.3-1.2-0.6-1.5
	C96.3,34.8,95.8,34.7,95.3,34.7z M103.2,33.8c0.2,0,0.4,0,0.6,0.1l0,1c-0.2-0.1-0.5-0.1-0.7-0.1c-0.7,0-1.2,0.2-1.5,0.6
	c-0.3,0.4-0.5,0.9-0.5,1.5v4H100v-5.1c0-0.7,0-1.4-0.1-2h1.1l0.1,1.3c0.2-0.5,0.5-0.8,0.9-1.1C102.3,33.9,102.7,33.8,103.2,33.8z
	 M107.8,41.1c-0.7,0-1.2-0.1-1.8-0.4c-0.5-0.3-0.9-0.7-1.2-1.3c-0.3-0.6-0.4-1.2-0.4-1.9s0.1-1.4,0.4-1.9c0.3-0.6,0.7-1,1.2-1.3
	c0.5-0.3,1.1-0.4,1.8-0.4c0.7,0,1.2,0.1,1.8,0.4c0.5,0.3,0.9,0.7,1.2,1.3c0.3,0.6,0.4,1.2,0.4,1.9s-0.1,1.4-0.4,1.9
	c-0.3,0.6-0.7,1-1.2,1.3C109.1,40.9,108.5,41.1,107.8,41.1z M107.8,40.2c0.7,0,1.2-0.2,1.6-0.7c0.4-0.5,0.6-1.1,0.6-2
	c0-0.9-0.2-1.5-0.6-2c-0.4-0.5-0.9-0.7-1.6-0.7c-0.7,0-1.2,0.2-1.6,0.7c-0.4,0.5-0.6,1.1-0.6,2c0,0.9,0.2,1.6,0.6,2
	C106.6,39.9,107.1,40.2,107.8,40.2z M116.7,31h6.3v1h-5.2v3.5h4.9v1h-4.9V40h5.2v1h-6.3V31z M132.6,33.8c1.6,0,2.3,0.9,2.3,2.8V41
	h-1.1v-4.4c0-0.7-0.1-1.1-0.4-1.4c-0.2-0.3-0.6-0.4-1.1-0.4c-0.6,0-1.1,0.2-1.4,0.6c-0.3,0.4-0.5,0.9-0.5,1.6v4h-1.1v-4.4
	c0-0.7-0.1-1.1-0.4-1.4c-0.2-0.3-0.6-0.5-1.1-0.5c-0.6,0-1.1,0.2-1.4,0.6c-0.3,0.4-0.5,0.9-0.5,1.6v4h-1.1v-5.1c0-0.7,0-1.4-0.1-2
	h1.1l0.1,1.2c0.2-0.4,0.5-0.8,0.9-1c0.4-0.2,0.8-0.4,1.4-0.4c0.6,0,1,0.1,1.4,0.3c0.4,0.2,0.6,0.6,0.8,1c0.2-0.4,0.5-0.8,0.9-1
	C131.6,33.9,132.1,33.8,132.6,33.8z M137.1,34h1.1v7h-1.1V34z M138.4,31v1.3H137V31H138.4z M142.8,41.1c-1.2,0-2.1-0.3-2.8-0.9
	l0.4-0.8c0.4,0.3,0.8,0.5,1.2,0.6c0.4,0.1,0.8,0.2,1.3,0.2c0.5,0,0.9-0.1,1.2-0.3c0.3-0.2,0.4-0.5,0.4-0.8c0-0.3-0.1-0.5-0.3-0.7
	c-0.2-0.2-0.5-0.3-0.9-0.4l-1.2-0.3c-0.6-0.1-1-0.4-1.4-0.7c-0.3-0.3-0.5-0.7-0.5-1.2c0-0.6,0.2-1.1,0.7-1.5c0.5-0.4,1.1-0.6,2-0.6
	c0.5,0,1,0.1,1.4,0.2c0.4,0.2,0.8,0.4,1.1,0.7l-0.4,0.8c-0.7-0.6-1.4-0.8-2.1-0.8c-0.5,0-0.9,0.1-1.2,0.3c-0.3,0.2-0.4,0.5-0.4,0.8
	c0,0.3,0.1,0.5,0.3,0.7c0.2,0.2,0.5,0.3,0.8,0.4l1.2,0.3c0.7,0.1,1.1,0.4,1.5,0.7c0.3,0.3,0.5,0.7,0.5,1.2c0,0.6-0.2,1.1-0.7,1.5
	C144.3,40.9,143.7,41.1,142.8,41.1z M149.8,41.1c-1.2,0-2.1-0.3-2.8-0.9l0.4-0.8c0.4,0.3,0.8,0.5,1.2,0.6s0.8,0.2,1.3,0.2
	c0.5,0,0.9-0.1,1.2-0.3c0.3-0.2,0.4-0.5,0.4-0.8c0-0.3-0.1-0.5-0.3-0.7c-0.2-0.2-0.5-0.3-0.9-0.4l-1.2-0.3c-0.6-0.1-1-0.4-1.4-0.7
	c-0.3-0.3-0.5-0.7-0.5-1.2c0-0.6,0.2-1.1,0.7-1.5c0.5-0.4,1.1-0.6,2-0.6c0.5,0,1,0.1,1.4,0.2c0.4,0.2,0.8,0.4,1.1,0.7l-0.4,0.8
	c-0.7-0.6-1.4-0.8-2.1-0.8c-0.5,0-0.9,0.1-1.2,0.3c-0.3,0.2-0.4,0.5-0.4,0.8c0,0.3,0.1,0.5,0.3,0.7c0.2,0.2,0.5,0.3,0.8,0.4l1.2,0.3
	c0.7,0.1,1.1,0.4,1.5,0.7c0.3,0.3,0.5,0.7,0.5,1.2c0,0.6-0.2,1.1-0.7,1.5C151.3,40.9,150.6,41.1,149.8,41.1z M154.3,34h1.1v7h-1.1
	V34z M155.6,31v1.3h-1.4V31H155.6z M160.6,41.1c-0.7,0-1.2-0.1-1.8-0.4c-0.5-0.3-0.9-0.7-1.2-1.3c-0.3-0.6-0.4-1.2-0.4-1.9
	s0.1-1.4,0.4-1.9c0.3-0.6,0.7-1,1.2-1.3c0.5-0.3,1.1-0.4,1.8-0.4c0.7,0,1.2,0.1,1.8,0.4c0.5,0.3,0.9,0.7,1.2,1.3
	c0.3,0.6,0.4,1.2,0.4,1.9s-0.1,1.4-0.4,1.9c-0.3,0.6-0.7,1-1.2,1.3C161.8,40.9,161.2,41.1,160.6,41.1z M160.6,40.2
	c0.7,0,1.2-0.2,1.6-0.7c0.4-0.5,0.6-1.1,0.6-2c0-0.9-0.2-1.5-0.6-2c-0.4-0.5-0.9-0.7-1.6-0.7c-0.7,0-1.2,0.2-1.6,0.7
	c-0.4,0.5-0.6,1.1-0.6,2c0,0.9,0.2,1.6,0.6,2C159.3,39.9,159.9,40.2,160.6,40.2z M169.2,33.8c1.7,0,2.5,0.9,2.5,2.8V41h-1.1v-4.4
	c0-0.7-0.1-1.1-0.4-1.4c-0.3-0.3-0.7-0.5-1.2-0.5c-0.7,0-1.2,0.2-1.6,0.6c-0.4,0.4-0.6,0.9-0.6,1.6v4h-1.1v-5.1c0-0.7,0-1.4-0.1-2
	h1.1l0.1,1.3c0.2-0.5,0.5-0.8,1-1C168.1,33.9,168.6,33.8,169.2,33.8z M176.2,41.1c-1.2,0-2.1-0.3-2.8-0.9l0.4-0.8
	c0.4,0.3,0.8,0.5,1.2,0.6s0.8,0.2,1.3,0.2c0.5,0,0.9-0.1,1.2-0.3c0.3-0.2,0.4-0.5,0.4-0.8c0-0.3-0.1-0.5-0.3-0.7
	c-0.2-0.2-0.5-0.3-0.9-0.4l-1.2-0.3c-0.6-0.1-1-0.4-1.4-0.7c-0.3-0.3-0.5-0.7-0.5-1.2c0-0.6,0.2-1.1,0.7-1.5c0.5-0.4,1.1-0.6,2-0.6
	c0.5,0,1,0.1,1.4,0.2c0.4,0.2,0.8,0.4,1.1,0.7l-0.4,0.8c-0.7-0.6-1.4-0.8-2.1-0.8c-0.5,0-0.9,0.1-1.2,0.3c-0.3,0.2-0.4,0.5-0.4,0.8
	c0,0.3,0.1,0.5,0.3,0.7c0.2,0.2,0.5,0.3,0.8,0.4l1.2,0.3c0.7,0.1,1.1,0.4,1.5,0.7c0.3,0.3,0.5,0.7,0.5,1.2c0,0.6-0.2,1.1-0.7,1.5
	C177.8,40.9,177.1,41.1,176.2,41.1z"/>
<path class="st5" d="M87.5,306.9h5l-0.5,6.2c-0.6,0.3-1.3,0.6-2.2,0.7c-0.8,0.2-1.7,0.3-2.6,0.3c-1.3,0-2.4-0.2-3.3-0.7
	c-0.9-0.5-1.6-1.2-2.1-2.1c-0.5-0.9-0.7-2-0.7-3.3c0-1.4,0.3-2.7,0.8-3.7s1.3-1.9,2.4-2.4c1-0.6,2.2-0.9,3.6-0.9
	c1.9,0,3.5,0.5,4.6,1.5l-1.1,2c-0.6-0.4-1.1-0.8-1.6-1s-1.1-0.3-1.8-0.3c-1.3,0-2.3,0.4-3,1.3c-0.7,0.8-1.1,2-1.1,3.5
	c0,1.3,0.3,2.2,0.9,2.9c0.6,0.7,1.5,1,2.8,1c0.7,0,1.4-0.1,2-0.3l0.2-2.8h-2.5L87.5,306.9z M100.2,304.7c0.4,0,0.7,0.1,1,0.2
	l-0.2,2.5c-0.4-0.2-0.9-0.3-1.3-0.3c-0.7,0-1.3,0.2-1.7,0.6c-0.4,0.4-0.6,0.9-0.7,1.7l-0.4,4.8h-2.7l0.5-6.5c0-0.8,0.1-1.5,0.1-1.9
	c0-0.3,0-0.6,0-0.7h2.6l0,1.4c0.3-0.5,0.7-0.9,1.2-1.2C99,304.8,99.6,304.7,100.2,304.7z M111.2,304.9l-0.7,9.1h-2.7l0.1-1.2
	c-0.3,0.4-0.7,0.7-1.2,1c-0.5,0.2-1,0.3-1.6,0.3c-0.8,0-1.4-0.2-2-0.5c-0.6-0.4-1-0.9-1.4-1.5c-0.3-0.7-0.5-1.4-0.5-2.3
	c0-1,0.2-1.9,0.5-2.6c0.4-0.8,0.9-1.4,1.5-1.8c0.7-0.4,1.4-0.6,2.3-0.6c0.6,0,1.2,0.1,1.7,0.4c0.5,0.2,0.9,0.6,1.2,1.1l0.1-1.2
	H111.2z M106.1,312.1c0.7,0,1.2-0.3,1.6-0.8c0.4-0.5,0.6-1.2,0.6-2.1c0-0.8-0.2-1.5-0.5-1.9c-0.3-0.4-0.9-0.6-1.5-0.6
	c-0.7,0-1.2,0.3-1.6,0.8c-0.4,0.5-0.6,1.2-0.6,2.1c0,0.8,0.2,1.4,0.5,1.9C104.9,311.9,105.4,312.1,106.1,312.1z M122.9,300.8
	l-1.1,13.2h-2.7l0.1-1.2c-0.3,0.4-0.7,0.7-1.2,1c-0.5,0.2-1,0.3-1.6,0.3c-0.8,0-1.4-0.2-2-0.5c-0.6-0.4-1-0.9-1.4-1.5
	c-0.3-0.7-0.5-1.4-0.5-2.3c0-1,0.2-1.9,0.5-2.6c0.4-0.8,0.9-1.4,1.5-1.8c0.7-0.4,1.4-0.6,2.3-0.6c0.6,0,1.2,0.1,1.6,0.4
	c0.5,0.2,0.9,0.6,1.2,1l0.4-5.3H122.9z M117.4,312.1c0.7,0,1.2-0.3,1.6-0.8c0.4-0.5,0.6-1.2,0.6-2.1c0-0.8-0.2-1.5-0.5-1.9
	c-0.3-0.4-0.9-0.6-1.5-0.6c-0.7,0-1.2,0.3-1.6,0.8c-0.4,0.5-0.6,1.2-0.6,2.1c0,0.8,0.2,1.4,0.5,1.9S116.7,312.1,117.4,312.1z
	 M128.6,304.6c1.2,0,2.2,0.4,2.9,1.1c0.7,0.7,1.1,1.7,1.1,3c0,0.3,0,0.6-0.1,0.9h-6c0,0.8,0.2,1.4,0.6,1.8c0.4,0.4,1,0.6,1.7,0.6
	c1,0,1.9-0.3,2.7-0.9l0.6,1.8c-0.4,0.3-0.9,0.6-1.5,0.8c-0.6,0.2-1.3,0.3-1.9,0.3c-0.9,0-1.8-0.2-2.5-0.5c-0.7-0.4-1.3-0.9-1.7-1.6
	c-0.4-0.7-0.6-1.5-0.6-2.4c0-1,0.2-1.8,0.6-2.6c0.4-0.8,0.9-1.4,1.6-1.8C126.9,304.9,127.7,304.6,128.6,304.6z M128.7,306.5
	c-1.1,0-1.7,0.6-2,1.8h3.7c0-0.6-0.1-1-0.4-1.3C129.6,306.7,129.2,306.5,128.7,306.5z M137.6,314.1c-1.6,0-3-0.4-4.2-1.1l0.9-1.9
	c0.5,0.3,1,0.6,1.6,0.8c0.6,0.2,1.2,0.3,1.7,0.3c0.5,0,0.9-0.1,1.1-0.2c0.2-0.1,0.4-0.3,0.4-0.6c0-0.3-0.1-0.4-0.4-0.6
	c-0.3-0.1-0.7-0.3-1.4-0.5c-0.7-0.2-1.2-0.4-1.6-0.5c-0.4-0.2-0.8-0.4-1.1-0.8c-0.3-0.4-0.4-0.8-0.4-1.4c0-0.6,0.2-1.1,0.5-1.5
	c0.3-0.4,0.8-0.8,1.4-1c0.6-0.3,1.3-0.4,2.1-0.4c0.7,0,1.4,0.1,2,0.3c0.7,0.2,1.2,0.5,1.7,0.8l-0.9,1.8c-0.4-0.3-0.9-0.6-1.4-0.7
	s-1-0.3-1.4-0.3c-0.5,0-0.9,0.1-1.1,0.2c-0.3,0.1-0.4,0.3-0.4,0.6c0,0.3,0.2,0.5,0.4,0.6c0.3,0.2,0.8,0.3,1.4,0.5
	c0.7,0.2,1.2,0.4,1.6,0.6c0.4,0.2,0.8,0.5,1.1,0.8c0.3,0.3,0.5,0.8,0.5,1.4c0,0.9-0.4,1.6-1.1,2.1
	C139.8,313.9,138.8,314.1,137.6,314.1z M157.1,311.2h-6l-1.4,2.8h-2.9l6.9-12.8h2.3l4.9,12.8h-2.7L157.1,311.2z M156.3,309l-1.7-4.8
	l-2.4,4.8H156.3z M164.7,311.1l-0.1,1.8c-0.1,0.7-0.2,1.4-0.5,1.9c-0.3,0.6-0.8,1.2-1.4,1.7l-1-0.8c0.6-0.6,1.1-1.2,1.2-1.8h-1.3
	l0.2-2.9H164.7z M180.4,307.4c0.7,0.2,1.2,0.6,1.6,1.1c0.4,0.5,0.6,1.2,0.6,1.9c0,1.2-0.4,2.1-1.3,2.7c-0.8,0.6-2,1-3.4,1h-6.2
	l1-12.8h5.7c1.4,0,2.5,0.3,3.2,0.9c0.7,0.6,1.1,1.4,1.1,2.3C182.7,305.8,181.9,306.8,180.4,307.4z M177.7,306.4
	c0.8,0,1.4-0.1,1.7-0.4s0.5-0.7,0.5-1.2c0-0.5-0.2-0.8-0.5-1.1c-0.3-0.3-0.8-0.4-1.5-0.4h-2.6l-0.3,3.1H177.7z M177.6,311.8
	c0.8,0,1.4-0.1,1.7-0.4c0.4-0.3,0.5-0.7,0.5-1.3c0-0.5-0.2-0.9-0.5-1.2c-0.3-0.3-0.8-0.4-1.5-0.4h-3l-0.3,3.3H177.6z"/>
</svg>
