<?xml version="1.0" encoding="utf-8"?>
<!-- Generator: Adobe Illustrator 25.0.1, SVG Export Plug-In . SVG Version: 6.00 Build 0)  -->
<svg version="1.1" id="Layer_1" xmlns="http://www.w3.org/2000/svg" xmlns:xlink="http://www.w3.org/1999/xlink" x="0px" y="0px"
	 viewBox="0 0 20 20" style="enable-background:new 0 0 20 20;" xml:space="preserve">
<style type="text/css">
	.st0{fill-rule:evenodd;clip-rule:evenodd;fill:#333333;}
	.st1{fill-rule:evenodd;clip-rule:evenodd;fill:#FA910B;}
	.st2{fill:none;stroke:#333333;}
</style>
<path class="st0" d="M16.9,7c-1.1,0.7-1.8,1.6-1.9,2.8c0,1.1,0.7,2.1,1.8,2.8l0-0.6c-0.8-0.6-1.2-1.4-1.2-2.2c0-0.8,0.5-1.5,1.3-2.1
	L16.9,7z"/>
<path class="st1" d="M9.1,4.3C9.1,4.1,9,4,8.8,4C6.3,4.4,4.3,6.5,4,9.1c0,0.2,0.1,0.3,0.3,0.3c0.1,0,0.3-0.1,0.3-0.3
	c0.2-2.3,2-4.2,4.3-4.6C9,4.5,9.1,4.4,9.1,4.3z"/>
<path class="st1" d="M5.1,7.2C4.8,7.8,4.6,8.4,4.5,9.1c0,0,0,0,0,0c0,0.1-0.1,0.2-0.3,0.2C4.1,9.4,4,9.3,4,9.1c0,0,0,0,0,0
	c0-0.4,0.1-0.8,0.3-1.2c0.1-0.4,0.3-0.8,0.5-1.2C4.9,6.9,5,7,5.1,7.2z M7,5.3c0.6-0.4,1.2-0.6,1.9-0.7c0,0,0,0,0,0
	c0.1,0,0.2-0.1,0.2-0.3C9.1,4.1,9,4,8.8,4c0,0,0,0,0,0c-0.3,0.1-0.7,0.1-1,0.3C7.3,4.4,6.9,4.7,6.5,4.9C6.7,5,6.8,5.1,7,5.3z"/>
<circle class="st2" cx="10" cy="10" r="9.5"/>
<circle class="st2" cx="10" cy="10" r="7.5"/>
</svg>
