<?xml version="1.0" encoding="utf-8"?>
<!-- Generator: Adobe Illustrator 25.0.1, SVG Export Plug-In . SVG Version: 6.00 Build 0)  -->
<svg version="1.1" id="Layer_1" xmlns="http://www.w3.org/2000/svg" xmlns:xlink="http://www.w3.org/1999/xlink" x="0px" y="0px"
	 viewBox="0 0 20 17" style="enable-background:new 0 0 20 17;" xml:space="preserve">
<style type="text/css">
	.st0{fill-rule:evenodd;clip-rule:evenodd;fill:#333333;}
	.st1{fill-rule:evenodd;clip-rule:evenodd;fill:#FFFFFF;filter:url(#Adobe_OpacityMaskFilter);}
	.st2{mask:url(#path-1-inside-1_1_);fill:#333333;}
	.st3{fill-rule:evenodd;clip-rule:evenodd;fill:#FFFFFF;filter:url(#Adobe_OpacityMaskFilter_1_);}
	.st4{mask:url(#path-3-inside-2_1_);fill:#333333;}
	.st5{fill-rule:evenodd;clip-rule:evenodd;fill:#FFFFFF;filter:url(#Adobe_OpacityMaskFilter_2_);}
	.st6{mask:url(#path-5-inside-3_1_);fill:#333333;}
	.st7{fill-rule:evenodd;clip-rule:evenodd;fill:#FFFFFF;filter:url(#Adobe_OpacityMaskFilter_3_);}
	.st8{mask:url(#path-7-inside-4_1_);fill:#333333;}
	.st9{fill:none;stroke:#333333;}
	.st10{fill:none;stroke:#FA910B;stroke-width:0.5;}
</style>
<path class="st0" d="M5.2,5.5c1,0,1.8-0.8,1.8-1.8S6.2,2,5.2,2S3.5,2.8,3.5,3.7S4.3,5.5,5.2,5.5z M5.2,5.9c1.2,0,2.2-1,2.2-2.2
	c0-1.2-1-2.2-2.2-2.2C4,1.5,3,2.5,3,3.7C3,4.9,4,5.9,5.2,5.9z"/>
<defs>
	<filter id="Adobe_OpacityMaskFilter" filterUnits="userSpaceOnUse" x="1.5" y="0" width="7.4" height="7.4">
		<feColorMatrix  type="matrix" values="1 0 0 0 0  0 1 0 0 0  0 0 1 0 0  0 0 0 1 0"/>
	</filter>
</defs>
<mask maskUnits="userSpaceOnUse" x="1.5" y="0" width="7.4" height="7.4" id="path-1-inside-1_1_">
	<path class="st1" d="M5.2,5.5c1,0,1.8-0.8,1.8-1.8S6.2,2,5.2,2S3.5,2.8,3.5,3.7S4.3,5.5,5.2,5.5z M5.2,5.9c1.2,0,2.2-1,2.2-2.2
		c0-1.2-1-2.2-2.2-2.2C4,1.5,3,2.5,3,3.7C3,4.9,4,5.9,5.2,5.9z"/>
</mask>
<path class="st2" d="M5.5,3.7C5.5,3.9,5.4,4,5.2,4v3C7,7,8.5,5.5,8.5,3.7H5.5z M5.2,3.5c0.1,0,0.3,0.1,0.3,0.3h3
	c0-1.8-1.5-3.3-3.3-3.3V3.5z M5,3.7c0-0.1,0.1-0.3,0.3-0.3v-3C3.4,0.5,2,1.9,2,3.7H5z M5.2,4C5.1,4,5,3.9,5,3.7H2C2,5.5,3.4,7,5.2,7
	V4z M5.9,3.7c0,0.4-0.3,0.7-0.7,0.7v3c2.1,0,3.7-1.7,3.7-3.7H5.9z M5.2,3c0.4,0,0.7,0.3,0.7,0.7h3C8.9,1.7,7.3,0,5.2,0V3z M4.5,3.7
	C4.5,3.3,4.8,3,5.2,3V0C3.2,0,1.5,1.7,1.5,3.7H4.5z M5.2,4.4c-0.4,0-0.7-0.3-0.7-0.7h-3c0,2.1,1.7,3.7,3.7,3.7V4.4z"/>
<path class="st0" d="M14.2,13c1,0,1.8-0.8,1.8-1.8s-0.8-1.8-1.8-1.8s-1.8,0.8-1.8,1.8S13.3,13,14.2,13z M14.2,13.4
	c1.2,0,2.2-1,2.2-2.2c0-1.2-1-2.2-2.2-2.2S12,10,12,11.2C12,12.4,13,13.4,14.2,13.4z"/>
<defs>
	<filter id="Adobe_OpacityMaskFilter_1_" filterUnits="userSpaceOnUse" x="10.5" y="7.5" width="7.4" height="7.4">
		<feColorMatrix  type="matrix" values="1 0 0 0 0  0 1 0 0 0  0 0 1 0 0  0 0 0 1 0"/>
	</filter>
</defs>
<mask maskUnits="userSpaceOnUse" x="10.5" y="7.5" width="7.4" height="7.4" id="path-3-inside-2_1_">
	<path class="st3" d="M14.2,13c1,0,1.8-0.8,1.8-1.8s-0.8-1.8-1.8-1.8s-1.8,0.8-1.8,1.8S13.3,13,14.2,13z M14.2,13.4
		c1.2,0,2.2-1,2.2-2.2c0-1.2-1-2.2-2.2-2.2S12,10,12,11.2C12,12.4,13,13.4,14.2,13.4z"/>
</mask>
<path class="st4" d="M14.5,11.2c0,0.1-0.1,0.3-0.3,0.3v3c1.8,0,3.3-1.5,3.3-3.3H14.5z M14.2,11c0.1,0,0.3,0.1,0.3,0.3h3
	C17.5,9.4,16,8,14.2,8V11z M14,11.2c0-0.1,0.1-0.3,0.3-0.3V8C12.4,8,11,9.4,11,11.2H14z M14.2,11.5c-0.1,0-0.3-0.1-0.3-0.3h-3
	c0,1.8,1.5,3.3,3.3,3.3V11.5z M14.9,11.2c0,0.4-0.3,0.7-0.7,0.7v3c2.1,0,3.7-1.7,3.7-3.7H14.9z M14.2,10.5c0.4,0,0.7,0.3,0.7,0.7h3
	c0-2.1-1.7-3.7-3.7-3.7V10.5z M13.5,11.2c0-0.4,0.3-0.7,0.7-0.7v-3c-2.1,0-3.7,1.7-3.7,3.7H13.5z M14.2,11.9c-0.4,0-0.7-0.3-0.7-0.7
	h-3c0,2.1,1.7,3.7,3.7,3.7V11.9z"/>
<path class="st0" d="M14.5,8c1.7,0,3-1.3,3-3c0-1.7-1.3-3-3-3c-1.7,0-3,1.3-3,3C11.5,6.6,12.8,8,14.5,8z M14.5,8.4
	c1.9,0,3.5-1.6,3.5-3.5c0-1.9-1.6-3.5-3.5-3.5C12.6,1.5,11,3.1,11,5C11,6.9,12.6,8.4,14.5,8.4z"/>
<defs>
	<filter id="Adobe_OpacityMaskFilter_2_" filterUnits="userSpaceOnUse" x="9.5" y="0" width="9.9" height="9.9">
		<feColorMatrix  type="matrix" values="1 0 0 0 0  0 1 0 0 0  0 0 1 0 0  0 0 0 1 0"/>
	</filter>
</defs>
<mask maskUnits="userSpaceOnUse" x="9.5" y="0" width="9.9" height="9.9" id="path-5-inside-3_1_">
	<path class="st5" d="M14.5,8c1.7,0,3-1.3,3-3c0-1.7-1.3-3-3-3c-1.7,0-3,1.3-3,3C11.5,6.6,12.8,8,14.5,8z M14.5,8.4
		c1.9,0,3.5-1.6,3.5-3.5c0-1.9-1.6-3.5-3.5-3.5C12.6,1.5,11,3.1,11,5C11,6.9,12.6,8.4,14.5,8.4z"/>
</mask>
<path class="st6" d="M16,5c0,0.8-0.7,1.5-1.5,1.5v3C17,9.5,19,7.5,19,5H16z M14.5,3.5C15.3,3.5,16,4.1,16,5h3c0-2.5-2-4.5-4.5-4.5
	V3.5z M13,5c0-0.8,0.7-1.5,1.5-1.5v-3C12,0.5,10,2.5,10,5H13z M14.5,6.5C13.6,6.5,13,5.8,13,5h-3c0,2.5,2,4.5,4.5,4.5V6.5z M16.4,5
	c0,1.1-0.9,2-2,2v3c2.7,0,5-2.2,5-5H16.4z M14.5,3c1.1,0,2,0.9,2,2h3c0-2.7-2.2-5-5-5V3z M12.5,5c0-1.1,0.9-2,2-2V0
	c-2.7,0-5,2.2-5,5H12.5z M14.5,6.9c-1.1,0-2-0.9-2-2h-3c0,2.7,2.2,5,5,5V6.9z"/>
<path class="st0" d="M5.5,13c1.7,0,3-1.3,3-3c0-1.7-1.3-3-3-3c-1.7,0-3,1.3-3,3C2.5,11.6,3.8,13,5.5,13z M5.5,13.4
	c1.9,0,3.5-1.6,3.5-3.5c0-1.9-1.6-3.5-3.5-3.5C3.6,6.5,2,8.1,2,10C2,11.9,3.6,13.4,5.5,13.4z"/>
<defs>
	<filter id="Adobe_OpacityMaskFilter_3_" filterUnits="userSpaceOnUse" x="0.5" y="5" width="9.9" height="9.9">
		<feColorMatrix  type="matrix" values="1 0 0 0 0  0 1 0 0 0  0 0 1 0 0  0 0 0 1 0"/>
	</filter>
</defs>
<mask maskUnits="userSpaceOnUse" x="0.5" y="5" width="9.9" height="9.9" id="path-7-inside-4_1_">
	<path class="st7" d="M5.5,13c1.7,0,3-1.3,3-3c0-1.7-1.3-3-3-3c-1.7,0-3,1.3-3,3C2.5,11.6,3.8,13,5.5,13z M5.5,13.4
		c1.9,0,3.5-1.6,3.5-3.5c0-1.9-1.6-3.5-3.5-3.5C3.6,6.5,2,8.1,2,10C2,11.9,3.6,13.4,5.5,13.4z"/>
</mask>
<path class="st8" d="M7,10c0,0.8-0.7,1.5-1.5,1.5v3c2.5,0,4.5-2,4.5-4.5H7z M5.5,8.5C6.3,8.5,7,9.1,7,10h3c0-2.5-2-4.5-4.5-4.5V8.5z
	 M4,10c0-0.8,0.7-1.5,1.5-1.5v-3C3,5.5,1,7.5,1,10H4z M5.5,11.5C4.6,11.5,4,10.8,4,10H1c0,2.5,2,4.5,4.5,4.5V11.5z M7.4,10
	c0,1.1-0.9,2-2,2v3c2.7,0,5-2.2,5-5H7.4z M5.5,8c1.1,0,2,0.9,2,2h3c0-2.7-2.2-5-5-5V8z M3.5,10c0-1.1,0.9-2,2-2V5c-2.7,0-5,2.2-5,5
	H3.5z M5.5,11.9c-1.1,0-2-0.9-2-2h-3c0,2.7,2.2,5,5,5V11.9z"/>
<rect x="0.5" y="0.5" class="st9" width="19" height="16"/>
<path class="st9" d="M0.5,14.5h19"/>
<circle class="st10" cx="14.5" cy="4.9" r="2.4"/>
<circle class="st10" cx="5.5" cy="9.9" r="2.4"/>
</svg>
