<?xml version="1.0" encoding="utf-8"?>
<!-- Generator: Adobe Illustrator 25.0.1, SVG Export Plug-In . SVG Version: 6.00 Build 0)  -->
<svg version="1.1" id="Layer_1" xmlns="http://www.w3.org/2000/svg" xmlns:xlink="http://www.w3.org/1999/xlink" x="0px" y="0px"
	 viewBox="0 0 29 29" style="enable-background:new 0 0 29 29;" xml:space="preserve">
<style type="text/css">
	.st0{fill:none;stroke:#FA910B;}
	.st1{fill-rule:evenodd;clip-rule:evenodd;fill:#FA910B;}
	.st2{fill:none;stroke:#333333;}
</style>
<path class="st0" d="M14.1,4.1v4"/>
<path class="st0" d="M14.1,20.1v4"/>
<path class="st0" d="M4.1,14.1h4"/>
<path class="st0" d="M20.1,14.1h4"/>
<path class="st0" d="M7.1,7.1l2.8,2.8"/>
<path class="st0" d="M18.4,18.4l2.8,2.8"/>
<path class="st0" d="M7.1,21.2l2.8-2.8"/>
<path class="st0" d="M18.4,9.9l2.8-2.8"/>
<path class="st1" d="M13.8,10.9c0-0.2-0.1-0.3-0.3-0.3c-1.5,0.3-2.6,1.5-2.8,3c0,0.2,0.1,0.3,0.3,0.3c0.1,0,0.3-0.1,0.3-0.3
	c0.2-1.2,1.1-2.2,2.3-2.5C13.7,11.2,13.8,11.1,13.8,10.9z"/>
<circle class="st2" cx="14.1" cy="14.1" r="4.5"/>
</svg>
