<?xml version="1.0" encoding="utf-8"?>
<!-- Generator: Adobe Illustrator 25.0.1, SVG Export Plug-In . SVG Version: 6.00 Build 0)  -->
<svg version="1.1" id="Layer_1" xmlns="http://www.w3.org/2000/svg" xmlns:xlink="http://www.w3.org/1999/xlink" x="0px" y="0px"
	 viewBox="0 0 20 15" style="enable-background:new 0 0 20 15;" xml:space="preserve">
<style type="text/css">
	.st0{fill-rule:evenodd;clip-rule:evenodd;fill:#333333;}
	.st1{fill-rule:evenodd;clip-rule:evenodd;fill:#FA910B;}
	.st2{fill:none;stroke:#333333;}
	.st3{fill:none;stroke:#FA910B;stroke-width:0.5;}
</style>
<path class="st0" d="M4.6,7.8h9.9c1.1,0,2.1,0.9,2.2,2H17c-0.1-1.3-1.2-2.3-2.6-2.3H4.6c-1.3,0-2.5,1-2.6,2.3h0.4
	C2.5,8.7,3.4,7.8,4.6,7.8z"/>
<path class="st1" d="M5,11.5c0.1-0.3,0.3-0.6,0.4-0.8L5.6,11c-0.1,0.1-0.3,0.4-0.3,0.6c0,0.2,0,0.5,0.3,0.7c0.4,0.3,0.5,0.8,0.4,1.2
	c-0.1,0.4-0.2,0.8-0.4,1.1l-0.3-0.2c0.1-0.2,0.3-0.5,0.3-0.9c0-0.3,0-0.7-0.3-0.9C5,12.2,4.9,11.8,5,11.5z"/>
<path class="st1" d="M9.1,11.5c0.1-0.3,0.3-0.6,0.4-0.8L9.8,11c-0.1,0.1-0.3,0.4-0.3,0.6c0,0.2,0,0.5,0.3,0.7
	c0.4,0.3,0.5,0.8,0.4,1.2c-0.1,0.4-0.2,0.8-0.4,1.1l-0.3-0.2c0.1-0.2,0.3-0.5,0.3-0.9c0-0.3,0-0.7-0.3-0.9C9.1,12.2,9,11.8,9.1,11.5
	z"/>
<path class="st1" d="M13.5,11.5c0.1-0.3,0.3-0.6,0.4-0.8l0.3,0.3c-0.1,0.1-0.3,0.4-0.3,0.6c0,0.2,0,0.5,0.3,0.7
	c0.4,0.3,0.5,0.8,0.4,1.2c-0.1,0.4-0.2,0.8-0.4,1.1l-0.3-0.2c0.1-0.2,0.3-0.5,0.3-0.9c0-0.3,0-0.7-0.3-0.9
	C13.6,12.2,13.5,11.8,13.5,11.5z"/>
<path class="st2" d="M2,0.5h16c0.8,0,1.5,0.7,1.5,1.5v6c0,0.8-0.7,1.5-1.5,1.5H2C1.2,9.5,0.5,8.8,0.5,8V2C0.5,1.2,1.2,0.5,2,0.5z"/>
<circle class="st3" cx="3.2" cy="3.2" r="0.9"/>
</svg>
