<?xml version="1.0" encoding="utf-8"?>
<!-- Generator: Adobe Illustrator 24.2.0, SVG Export Plug-In . SVG Version: 6.00 Build 0)  -->
<svg version="1.1" id="Layer_1" xmlns="http://www.w3.org/2000/svg" xmlns:xlink="http://www.w3.org/1999/xlink" x="0px" y="0px"
	 viewBox="0 0 101 101" style="enable-background:new 0 0 101 101;" xml:space="preserve">
<style type="text/css">
	.st0{fill-rule:evenodd;clip-rule:evenodd;fill:#333333;}
	.st1{fill-rule:evenodd;clip-rule:evenodd;fill:#FA910B;}
</style>
<path class="st0" d="M50.4,98c26.1,0,47.3-21.2,47.3-47.3c0-26.1-21.2-47.3-47.3-47.3C24.3,3.4,3.1,24.5,3.1,50.7
	C3.1,76.8,24.3,98,50.4,98z M50.4,100.7c27.6,0,50-22.4,50-50c0-27.6-22.4-50-50-50c-27.6,0-50,22.4-50,50
	C0.4,78.3,22.8,100.7,50.4,100.7z"/>
<path class="st0" d="M50.4,87.4c20.3,0,36.7-16.4,36.7-36.7C87.1,30.4,70.7,14,50.4,14S13.7,30.4,13.7,50.7
	C13.7,70.9,30.1,87.4,50.4,87.4z M50.4,90.1c21.8,0,39.4-17.6,39.4-39.4c0-21.8-17.6-39.4-39.4-39.4S11,28.9,11,50.7
	C11,72.4,28.6,90.1,50.4,90.1z"/>
<path class="st0" d="M87.3,37.2c-5.6,3.3-9.2,8.2-9.3,13.8c-0.1,5.6,3.3,10.6,8.8,14.1l0.1-3.2c-4.1-3.1-6.2-6.9-6.1-10.8
	c0.1-3.9,2.4-7.7,6.6-10.6L87.3,37.2z"/>
<path class="st1" d="M47.3,23.3c0-0.8-0.7-1.4-1.5-1.3C33,24,23,34.5,21.7,47.5c-0.1,0.8,0.5,1.4,1.3,1.4c0.7,0,1.3-0.6,1.4-1.3
	c1.2-11.7,10.2-21.1,21.7-23C46.8,24.6,47.3,24,47.3,23.3z"/>
</svg>
