<?xml version="1.0" encoding="utf-8"?>
<!-- Generator: Adobe Illustrator 24.2.0, SVG Export Plug-In . SVG Version: 6.00 Build 0)  -->
<svg version="1.1" id="Layer_1" xmlns="http://www.w3.org/2000/svg" xmlns:xlink="http://www.w3.org/1999/xlink" x="0px" y="0px"
	 viewBox="0 0 117 100" style="enable-background:new 0 0 117 100;" xml:space="preserve">
<style type="text/css">
	.st0{fill-rule:evenodd;clip-rule:evenodd;fill:#333333;}
	.st1{fill-rule:evenodd;clip-rule:evenodd;fill:#FA910B;}
</style>
<path class="st0" d="M114,2.7H3.3v94.6H114V2.7z M0.6,0v100h116.1V0H0.6z"/>
<path class="st0" d="M31.2,29.6c5.6,0,10.2-4.6,10.2-10.2S36.9,9.2,31.2,9.2S21,13.7,21,19.4S25.6,29.6,31.2,29.6z M31.2,32.3
	c7.1,0,12.9-5.8,12.9-12.9c0-7.1-5.8-12.9-12.9-12.9c-7.1,0-12.9,5.8-12.9,12.9C18.3,26.5,24.1,32.3,31.2,32.3z"/>
<path class="st0" d="M84.5,82.8c5.6,0,10.2-4.6,10.2-10.2c0-5.6-4.6-10.2-10.2-10.2s-10.2,4.6-10.2,10.2
	C74.3,78.2,78.8,82.8,84.5,82.8z M84.5,85.5c7.1,0,12.9-5.8,12.9-12.9c0-7.1-5.8-12.9-12.9-12.9c-7.1,0-12.9,5.8-12.9,12.9
	C71.6,79.7,77.3,85.5,84.5,85.5z"/>
<path class="st0" d="M85.3,44.1c9.6,0,17.5-7.8,17.5-17.5c0-9.6-7.8-17.5-17.5-17.5c-9.6,0-17.5,7.8-17.5,17.5
	C67.8,36.3,75.6,44.1,85.3,44.1z M85.3,46.8c11.1,0,20.2-9,20.2-20.2c0-11.1-9-20.2-20.2-20.2c-11.1,0-20.2,9-20.2,20.2
	C65.1,37.7,74.1,46.8,85.3,46.8z"/>
<path class="st0" d="M33.7,84.4c9.6,0,17.5-7.8,17.5-17.5s-7.8-17.5-17.5-17.5s-17.5,7.8-17.5,17.5S24,84.4,33.7,84.4z M33.7,87.1
	c11.1,0,20.2-9,20.2-20.2s-9-20.2-20.2-20.2s-20.2,9-20.2,20.2S22.5,87.1,33.7,87.1z"/>
<path class="st1" d="M33.7,79.6c7,0,12.6-5.7,12.6-12.6c0-7-5.7-12.6-12.6-12.6S21,60,21,66.9C21,73.9,26.7,79.6,33.7,79.6z
	 M33.7,82.3c8.5,0,15.3-6.9,15.3-15.3s-6.9-15.3-15.3-15.3s-15.3,6.9-15.3,15.3S25.2,82.3,33.7,82.3z"/>
<path class="st1" d="M85.3,39.2c7,0,12.6-5.7,12.6-12.6c0-7-5.7-12.6-12.6-12.6c-7,0-12.6,5.7-12.6,12.6
	C72.7,33.6,78.3,39.2,85.3,39.2z M85.3,41.9c8.5,0,15.3-6.9,15.3-15.3c0-8.5-6.9-15.3-15.3-15.3c-8.5,0-15.3,6.9-15.3,15.3
	C70,35.1,76.8,41.9,85.3,41.9z"/>
<path class="st0" d="M114,94.6H3.3v2.7H114V94.6z M0.6,91.9v8.1h116.1v-8.1H0.6z"/>
</svg>
