<?xml version="1.0" encoding="utf-8"?>
<!-- Generator: Adobe Illustrator 24.2.0, SVG Export Plug-In . SVG Version: 6.00 Build 0)  -->
<svg version="1.1" id="Layer_1" xmlns="http://www.w3.org/2000/svg" xmlns:xlink="http://www.w3.org/1999/xlink" x="0px" y="0px"
	 viewBox="0 0 88 101" style="enable-background:new 0 0 88 101;" xml:space="preserve">
<style type="text/css">
	.st0{fill-rule:evenodd;clip-rule:evenodd;fill:#333333;}
	.st1{fill:#FFFFFF;}
	.st2{fill-rule:evenodd;clip-rule:evenodd;fill:#FA910B;}
</style>
<path class="st0" d="M84.8,3.4H3.6V98h81.2V3.4z M0.8,0.7v100h86.8V0.7H0.8z"/>
<path class="st0" d="M76.4,11.5H12v78.4h64.4V11.5z M9.2,8.8v83.8h70V8.8H9.2z"/>
<path class="st0" d="M44.2,22.3l-23,38.5h46.1L44.2,22.3z M44.2,27.7L26,58.1h36.4L44.2,27.7z"/>
<path class="st1" d="M6.4,25h8.4v16.2H6.4V25z"/>
<path class="st0" d="M12,27.7H9.2v10.8H12V27.7z M6.4,25v16.2h8.4V25H6.4z"/>
<path class="st1" d="M6.4,57.4h8.4v16.2H6.4V57.4z"/>
<path class="st0" d="M12,60.1H9.2v10.8H12V60.1z M6.4,57.4v16.2h8.4V57.4H6.4z"/>
<path class="st2" d="M66.6,70.9H21.8v-2.7h44.8V70.9z"/>
<path class="st2" d="M66.6,77.7H21.8V75h44.8V77.7z"/>
<path class="st2" d="M44.3,35.2l2.5,1.3l-3.4,6.3h4.4l-6.6,12.6l-2.5-1.2l4.6-8.7h-4.5L44.3,35.2z"/>
</svg>
