<?xml version="1.0" encoding="utf-8"?>
<!-- Generator: Adobe Illustrator 24.2.0, SVG Export Plug-In . SVG Version: 6.00 Build 0)  -->
<svg version="1.1" id="Layer_1" xmlns="http://www.w3.org/2000/svg" xmlns:xlink="http://www.w3.org/1999/xlink" x="0px" y="0px"
	 viewBox="0 0 144 100" style="enable-background:new 0 0 144 100;" xml:space="preserve">
<style type="text/css">
	.st0{fill:#FA910B;}
	.st1{fill-rule:evenodd;clip-rule:evenodd;fill:#FA910B;}
	.st2{fill-rule:evenodd;clip-rule:evenodd;fill:#333333;}
	.st3{fill:#FFFFFF;}
</style>
<path class="st0" d="M16,18.1c0,0.5-0.4,1-1,1H1.8c-0.5,0-1-0.4-1-1c0-0.5,0.4-1,1-1h13.3C15.6,17.1,16,17.6,16,18.1z"/>
<path class="st0" d="M16,8.6c0,0.5-0.4,1-1,1H1.8c-0.5,0-1-0.4-1-1c0-0.5,0.4-1,1-1h13.3C15.6,7.6,16,8,16,8.6z"/>
<path class="st1" d="M1.8,17.1c-0.5,0-1,0.4-1,1c0,0.5,0.4,1,1,1h13.3c0.5,0,1-0.4,1-1c0-0.5-0.4-1-1-1H1.8z"/>
<path class="st1" d="M1.8,7.6c-0.5,0-1,0.4-1,1c0,0.5,0.4,1,1,1h13.3c0.5,0,1-0.4,1-1c0-0.5-0.4-1-1-1H1.8z"/>
<path class="st2" d="M17.1,23.8c1.3,0.1,2.6,0.2,4,0.2c6.8,0,12.8-1.4,17-3.6c4.3-2.2,6.1-4.9,6.1-7.1S42.4,8.5,38,6.3
	c-4.2-2.2-10.2-3.6-17-3.6c-1.4,0-2.7,0.1-4,0.2V23.8z M16.7,26.5c-1.3-0.1-2.3-1.3-2.3-2.6V2.8c0-1.3,1-2.5,2.3-2.6
	C18.1,0.1,19.6,0,21.1,0c14.2,0,25.7,6,25.7,13.3c0,7.4-11.5,13.3-25.7,13.3C19.6,26.7,18.1,26.6,16.7,26.5z"/>
<path class="st2" d="M108.1,53.2L95.8,60H74.1v-2.7h21l11.7-6.5L108.1,53.2z"/>
<path class="st2" d="M30.1,60h42.7v2.8v2.7V84H6.1C6.1,70.7,16.9,60,30.1,60z M72.8,86.7H6.1H3.5V84c0-14.7,11.9-26.7,26.7-26.7
	h42.7h2.7V60v8.1V84v0h45V68.1h0v-5.3h2.6v2.7V84v2.7h-2.7h-45L72.8,86.7L72.8,86.7z"/>
<path class="st2" d="M104.7,47.9c8.5,5.1,15,11.2,18.4,15.3l-2,1.7c-3.2-3.9-9.5-9.8-17.8-14.7c-8.2-4.9-18.3-8.8-29.2-8.8v-2.7
	C85.6,38.7,96.2,42.8,104.7,47.9z"/>
<path class="st2" d="M26.7,57.6c21.6-16.2,41.4-19.4,48.9-18.9l-0.2,2.7c-6.8-0.4-26,2.6-47.1,18.4L26.7,57.6z"/>
<path class="st2" d="M72.8,40h2.7v18.7l-2.7,0V40z"/>
<path class="st3" d="M43.5,85.3c0,8.1-6.6,14.7-14.7,14.7c-8.1,0-14.7-6.6-14.7-14.7s6.6-14.7,14.7-14.7
	C36.9,70.7,43.5,77.2,43.5,85.3z"/>
<path class="st2" d="M28.8,97.3c6.6,0,12-5.4,12-12c0-6.6-5.4-12-12-12c-6.6,0-12,5.4-12,12C16.8,92,22.2,97.3,28.8,97.3z M28.8,100
	c8.1,0,14.7-6.6,14.7-14.7s-6.6-14.7-14.7-14.7c-8.1,0-14.7,6.6-14.7,14.7S20.7,100,28.8,100z"/>
<path class="st3" d="M112.8,85.3c0,8.1-6.6,14.7-14.7,14.7c-8.1,0-14.7-6.6-14.7-14.7S90,70.7,98.1,70.7
	C106.2,70.7,112.8,77.2,112.8,85.3z"/>
<path class="st2" d="M98.1,97.3c6.6,0,12-5.4,12-12c0-6.6-5.4-12-12-12c-6.6,0-12,5.4-12,12C86.1,92,91.5,97.3,98.1,97.3z M98.1,100
	c8.1,0,14.7-6.6,14.7-14.7s-6.6-14.7-14.7-14.7c-8.1,0-14.7,6.6-14.7,14.7S90,100,98.1,100z"/>
<path class="st3" d="M35.5,85.3c0,3.7-3,6.7-6.7,6.7s-6.7-3-6.7-6.7s3-6.7,6.7-6.7S35.5,81.7,35.5,85.3z"/>
<path class="st1" d="M28.8,89.3c2.2,0,4-1.8,4-4c0-2.2-1.8-4-4-4c-2.2,0-4,1.8-4,4C24.8,87.5,26.6,89.3,28.8,89.3z M28.8,92
	c3.7,0,6.7-3,6.7-6.7s-3-6.7-6.7-6.7s-6.7,3-6.7,6.7S25.1,92,28.8,92z"/>
<path class="st3" d="M104.8,85.3c0,3.7-3,6.7-6.7,6.7c-3.7,0-6.7-3-6.7-6.7s3-6.7,6.7-6.7C101.8,78.7,104.8,81.7,104.8,85.3z"/>
<path class="st1" d="M98.1,89.3c2.2,0,4-1.8,4-4c0-2.2-1.8-4-4-4c-2.2,0-4,1.8-4,4C94.1,87.5,95.9,89.3,98.1,89.3z M98.1,92
	c3.7,0,6.7-3,6.7-6.7s-3-6.7-6.7-6.7c-3.7,0-6.7,3-6.7,6.7S94.5,92,98.1,92z"/>
<path class="st0" d="M54.1,66.7c0-0.7,0.6-1.3,1.3-1.3h10.7c0.7,0,1.3,0.6,1.3,1.3c0,0.7-0.6,1.3-1.3,1.3H55.5
	C54.7,68,54.1,67.4,54.1,66.7z"/>
<path class="st2" d="M46.1,12h71.7c3,0,6.1,0.4,8.9,1.8c6.4,3.1,15.6,10,16.7,23.4c0.7,8.1-2.5,14.4-6.9,19.1c-4.3,4.6-9.9,7.6-14,9
	l-0.8-2.5c3.8-1.3,8.9-4,12.9-8.3c4-4.2,6.8-9.9,6.2-17c-1-12.1-9.3-18.4-15.3-21.3c-2.3-1.1-5-1.5-7.7-1.5H46.1V12z"/>
</svg>
