<?xml version="1.0" encoding="utf-8"?>
<!-- Generator: Adobe Illustrator 24.2.0, SVG Export Plug-In . SVG Version: 6.00 Build 0)  -->
<svg version="1.1" id="Layer_1" xmlns="http://www.w3.org/2000/svg" xmlns:xlink="http://www.w3.org/1999/xlink" x="0px" y="0px"
	 viewBox="0 0 101 101" style="enable-background:new 0 0 101 101;" xml:space="preserve">
<style type="text/css">
	.st0{fill-rule:evenodd;clip-rule:evenodd;fill:#333333;}
	.st1{fill-rule:evenodd;clip-rule:evenodd;fill:#FA910B;}
</style>
<path class="st0" d="M50.4,71.9c11.7,0,21.2-9.5,21.2-21.2c0-11.7-9.5-21.2-21.2-21.2c-11.7,0-21.2,9.5-21.2,21.2
	C29.2,62.4,38.7,71.9,50.4,71.9z M50.4,74.6c13.2,0,23.9-10.7,23.9-23.9c0-13.2-10.7-23.9-23.9-23.9S26.5,37.5,26.5,50.7
	C26.5,63.9,37.2,74.6,50.4,74.6z"/>
<path class="st1" d="M48.5,34.6c0-0.8-0.7-1.4-1.5-1.3c-7.3,1.4-13,7.4-14,14.8c-0.1,0.8,0.5,1.4,1.3,1.4c0.7,0,1.3-0.6,1.4-1.3
	c0.9-6.1,5.6-11,11.6-12.3C48,35.9,48.5,35.3,48.5,34.6z"/>
<path class="st1" d="M49,23.9V0.7h2.7v23.2H49z"/>
<path class="st1" d="M49,100.7V77.5h2.7v23.2H49z"/>
<path class="st1" d="M31.3,31.5L14.9,15.2l1.9-1.9l16.5,16.3L31.3,31.5z"/>
<path class="st1" d="M85.8,85.6L69.4,69.3l1.9-1.9l16.5,16.3L85.8,85.6z"/>
<path class="st1" d="M30.7,68.7l-17,15.8l-1.8-2l17-15.8L30.7,68.7z"/>
<path class="st1" d="M87,16.3L70,32.1l-1.8-2l17-15.8L87,16.3z"/>
<path class="st1" d="M100.4,49.2H77.2v-2.7h23.2V49.2z"/>
<path class="st1" d="M23.6,49.2H0.4v-2.7h23.2V49.2z"/>
</svg>
