<?xml version="1.0" encoding="utf-8"?>
<!-- Generator: Adobe Illustrator 24.2.0, SVG Export Plug-In . SVG Version: 6.00 Build 0)  -->
<svg version="1.1" id="Layer_1" xmlns="http://www.w3.org/2000/svg" xmlns:xlink="http://www.w3.org/1999/xlink" x="0px" y="0px"
	 viewBox="0 0 148 101" style="enable-background:new 0 0 148 101;" xml:space="preserve">
<style type="text/css">
	.st0{fill-rule:evenodd;clip-rule:evenodd;fill:#333333;}
	.st1{fill-rule:evenodd;clip-rule:evenodd;fill:#FA910B;}
</style>
<path class="st0" d="M134,3.3H13.8C7.9,3.3,3.1,8.2,3.1,14.1v40c0,5.9,4.8,10.7,10.7,10.7H134c5.9,0,10.7-4.8,10.7-10.7v-40
	C144.7,8.2,139.9,3.3,134,3.3z M13.8,0.7c-7.4,0-13.4,6-13.4,13.4v40c0,7.4,6,13.4,13.4,13.4H134c7.4,0,13.4-6,13.4-13.4v-40
	c0-7.4-6-13.4-13.4-13.4H13.8z"/>
<path class="st0" d="M36.6,51.1h72.5c8.4,0,15.3,6.3,16.3,14.5h2.7c-1-9.6-9.1-17.2-19-17.2H36.6c-9.9,0-18,7.5-19,17.2h2.7
	C21.2,57.4,28.2,51.1,36.6,51.1z"/>
<path class="st1" d="M39.3,78.1c0.4-2.5,1.9-4.6,3.1-5.8l1.9,1.9c-1,1-2.1,2.6-2.4,4.4c-0.3,1.7,0.1,3.6,2.3,5.3
	c3.1,2.5,3.7,6,3.2,9.1c-0.4,3.1-1.8,6-3,7.7l-2.2-1.5c1-1.5,2.2-4,2.5-6.6c0.3-2.5-0.2-4.9-2.3-6.6C39.5,83.6,38.8,80.7,39.3,78.1z
	"/>
<path class="st1" d="M69.8,78.1c0.4-2.5,1.9-4.6,3.1-5.8l1.9,1.9c-1,1-2.1,2.6-2.4,4.4c-0.3,1.7,0.1,3.6,2.3,5.3
	c3.1,2.5,3.7,6,3.2,9.1c-0.4,3.1-1.8,6-3,7.7l-2.2-1.5c1-1.5,2.2-4,2.5-6.6c0.3-2.5-0.2-4.9-2.3-6.6C70.1,83.6,69.4,80.7,69.8,78.1z
	"/>
<path class="st1" d="M102.3,78.1c0.4-2.5,1.9-4.6,3.1-5.8l1.9,1.9c-1,1-2.1,2.6-2.4,4.4c-0.3,1.7,0.1,3.6,2.3,5.3
	c3.1,2.5,3.7,6,3.2,9.1c-0.4,3.1-1.8,6-3,7.7l-2.2-1.5c1-1.5,2.2-4,2.5-6.6c0.3-2.5-0.2-4.9-2.3-6.6
	C102.5,83.6,101.8,80.7,102.3,78.1z"/>
<path class="st1" d="M28.1,22.8c3.3,0,5.9-2.6,5.9-5.9S31.3,11,28.1,11c-3.3,0-5.9,2.6-5.9,5.9S24.8,22.8,28.1,22.8z M28.1,25.5
	c4.7,0,8.6-3.8,8.6-8.6s-3.8-8.6-8.6-8.6c-4.7,0-8.6,3.8-8.6,8.6S23.3,25.5,28.1,25.5z"/>
</svg>
