<?xml version="1.0" encoding="utf-8"?>
<!-- Generator: Adobe Illustrator 24.2.0, SVG Export Plug-In . SVG Version: 6.00 Build 0)  -->
<svg version="1.1" id="Layer_1" xmlns="http://www.w3.org/2000/svg" xmlns:xlink="http://www.w3.org/1999/xlink" x="0px" y="0px"
	 viewBox="0 0 64 101" style="enable-background:new 0 0 64 101;" xml:space="preserve">
<style type="text/css">
	.st0{fill-rule:evenodd;clip-rule:evenodd;fill:#333333;}
	.st1{fill-rule:evenodd;clip-rule:evenodd;fill:#FA910B;}
</style>
<path class="st0" d="M59.2,26.4H13.3v71.5h45.8V26.4z M10.6,23.7v77h51.3v-77H10.6z"/>
<path class="st0" d="M60.9,3.4H12.5v20.2h48.4V3.4z M9.8,0.7v25.7h53.9V0.7H9.8z"/>
<path class="st1" d="M41.2,7.2h-8.6v8.6h8.6V7.2z M29.8,4.4v14.1H44V4.4H29.8z"/>
<path class="st1" d="M40.2,10.5l-5.1,3.8l-1.6-2.2l5.1-3.8L40.2,10.5z"/>
<path class="st0" d="M10.6,62.2H0.3v-2.7h10.3V62.2z"/>
<path class="st0" d="M10.6,75H0.3v-2.7h10.3V75z"/>
</svg>
