<?xml version="1.0" encoding="utf-8"?>
<!-- Generator: Adobe Illustrator 24.2.3, SVG Export Plug-In . SVG Version: 6.00 Build 0)  -->
<svg version="1.1" id="Layer_1" xmlns="http://www.w3.org/2000/svg" xmlns:xlink="http://www.w3.org/1999/xlink" x="0px" y="0px"
	 viewBox="0 0 20 20" style="enable-background:new 0 0 20 20;" xml:space="preserve">
<style type="text/css">
	.st0{fill:#007AFF;}
	.st1{fill:#FFFFFF;}
</style>
<circle class="st0" cx="10" cy="10" r="10"/>
<path class="st1" d="M9.2,13.5c0-0.2,0-0.4,0-0.5c0-0.7,0.1-1.3,0.3-1.8c0.1-0.4,0.4-0.8,0.7-1.1c0.2-0.3,0.7-0.7,1.3-1.2
	c0.6-0.5,1-1,1.2-1.3c0.2-0.3,0.3-0.7,0.3-1c0-0.7-0.3-1.3-0.8-1.8c-0.5-0.5-1.2-0.8-2-0.8c-0.7,0-1.4,0.2-1.9,0.7
	c-0.5,0.5-0.8,1.2-1,2.2L5.4,6.6c0.2-1.3,0.6-2.4,1.4-3.1c0.8-0.7,1.9-1.1,3.2-1.1c1.4,0,2.5,0.4,3.3,1.1c0.8,0.8,1.2,1.7,1.2,2.8
	c0,0.6-0.1,1.2-0.4,1.7c-0.3,0.5-0.9,1.2-1.7,1.9c-0.6,0.5-0.9,0.9-1.1,1.1S11.1,11.6,11,12c-0.1,0.3-0.1,0.8-0.1,1.5H9.2z M9.1,17
	v-2h2v2H9.1z"/>
</svg>
