<?xml version="1.0" encoding="utf-8"?>
<!-- Generator: Adobe Illustrator 25.0.1, SVG Export Plug-In . SVG Version: 6.00 Build 0)  -->
<svg version="1.1" id="Layer_1" xmlns="http://www.w3.org/2000/svg" xmlns:xlink="http://www.w3.org/1999/xlink" x="0px" y="0px"
	 viewBox="0 0 95 95" style="enable-background:new 0 0 95 95;" xml:space="preserve">
<style type="text/css">
	.st0{clip-path:url(#SVGID_2_);}
	.st1{fill:#979797;}
</style>
<g>
	<defs>
		<rect id="SVGID_1_" width="95" height="95"/>
	</defs>
	<clipPath id="SVGID_2_">
		<use xlink:href="#SVGID_1_"  style="overflow:visible;"/>
	</clipPath>
	<g class="st0">
		<path class="st1" d="M76.7,28.4C73.5,12.3,57.9,1.8,41.8,5C30,7.4,20.8,16.6,18.4,28.4C7,29.7-1.2,40,0.1,51.4
			c1.2,10.5,10.1,18.4,20.7,18.4h14.9c1.6,0,3-1.3,3-3c0-1.6-1.3-3-3-3H20.8C12.6,63.8,6,57.1,6,48.9c0-8.2,6.7-14.8,14.9-14.8
			c1.5,0,2.8-1.1,3-2.6c1.5-13,13.3-22.4,26.4-20.9c11,1.3,19.6,9.9,20.9,20.9c0.2,1.5,1.6,2.7,3.1,2.6c8.2,0,14.9,6.7,14.9,14.9
			c0,8.2-6.7,14.9-14.9,14.9H59.5c-1.6,0-3,1.3-3,3c0,1.6,1.3,3,3,3h14.9c11.5-0.1,20.7-9.4,20.7-20.9
			C94.9,38.4,87.1,29.6,76.7,28.4z"/>
		<path class="st1" d="M58.1,57.8c1.1,1.2,3,1.2,4.2,0.1c1.2-1.1,1.2-3,0.1-4.2c0,0,0,0-0.1-0.1L49.7,41c-1.2-1.2-3-1.2-4.2,0
			c0,0,0,0,0,0L32.9,53.6c-1.2,1.1-1.2,3-0.1,4.2c1.1,1.2,3,1.2,4.2,0.1c0,0,0,0,0.1-0.1l7.5-7.5v37.4c0,1.6,1.3,3,3,3
			c1.6,0,3-1.3,3-3V50.3L58.1,57.8z"/>
	</g>
</g>
</svg>
